<svg width="990" height="611" viewBox="0 0 990 611" fill="none" xmlns="http://www.w3.org/2000/svg">
<g clip-path="url(#clip0)">
<path d="M989.064 381.683L344.938 -0.00152588L325.566 32.6899L969.693 414.374L989.064 381.683Z" fill="#F2F2F2"/>
<path d="M849.065 413.682L204.938 31.9983L185.567 64.6897L829.693 446.374L849.065 413.682Z" fill="#F2F2F2"/>
<path d="M725.066 448.682L80.9389 66.998L61.5673 99.6894L705.694 481.374L725.066 448.682Z" fill="#F2F2F2"/>
<path d="M569.511 447.425C680.889 447.425 771.179 357.135 771.179 245.756C771.179 134.378 680.889 44.0875 569.511 44.0875C458.132 44.0875 367.842 134.378 367.842 245.756C367.842 357.135 458.132 447.425 569.511 447.425Z" fill="#5696A4"/>
<path opacity="0.3" d="M569.511 282.582C562.4 282.582 555.45 280.474 549.538 276.524C543.626 272.574 539.018 266.959 536.298 260.39C533.577 253.821 532.865 246.593 534.252 239.619C535.639 232.646 539.063 226.24 544.09 221.213C549.118 216.185 555.524 212.761 562.497 211.374C569.471 209.987 576.699 210.699 583.268 213.42C589.837 216.141 595.451 220.748 599.402 226.66C603.352 232.572 605.46 239.523 605.46 246.633C605.449 256.164 601.658 265.302 594.919 272.041C588.179 278.781 579.042 282.572 569.511 282.582V282.582ZM569.511 212.437C562.747 212.437 556.136 214.442 550.512 218.2C544.889 221.957 540.506 227.298 537.918 233.547C535.329 239.795 534.652 246.671 535.972 253.304C537.291 259.938 540.548 266.031 545.33 270.813C550.113 275.596 556.206 278.852 562.839 280.172C569.473 281.491 576.348 280.814 582.597 278.226C588.845 275.638 594.186 271.255 597.944 265.631C601.701 260.008 603.707 253.396 603.707 246.633C603.696 237.567 600.09 228.875 593.68 222.464C587.269 216.053 578.577 212.447 569.511 212.437V212.437Z" fill="black"/>
<path opacity="0.3" d="M569.511 315.025C555.984 315.025 542.761 311.014 531.514 303.499C520.267 295.984 511.501 285.302 506.325 272.805C501.148 260.308 499.794 246.557 502.433 233.29C505.072 220.024 511.585 207.837 521.15 198.272C530.715 188.708 542.901 182.194 556.168 179.555C569.435 176.916 583.186 178.271 595.683 183.447C608.18 188.623 618.861 197.389 626.376 208.636C633.891 219.883 637.903 233.106 637.903 246.633C637.882 264.765 630.67 282.149 617.848 294.971C605.027 307.792 587.643 315.004 569.511 315.025V315.025ZM569.511 179.995C556.331 179.995 543.447 183.903 532.488 191.225C521.53 198.547 512.989 208.955 507.945 221.131C502.901 233.308 501.582 246.707 504.153 259.633C506.724 272.56 513.071 284.434 522.39 293.753C531.71 303.073 543.584 309.419 556.51 311.991C569.437 314.562 582.835 313.242 595.012 308.199C607.189 303.155 617.596 294.614 624.918 283.655C632.241 272.697 636.149 259.813 636.149 246.633C636.129 228.965 629.102 212.027 616.609 199.534C604.116 187.042 587.178 180.014 569.511 179.995V179.995Z" fill="black"/>
<path opacity="0.3" d="M569.511 343.083C550.435 343.083 531.787 337.426 515.926 326.828C500.065 316.23 487.702 301.167 480.402 283.543C473.102 265.919 471.192 246.526 474.914 227.816C478.635 209.107 487.821 191.921 501.31 178.432C514.799 164.943 531.985 155.758 550.694 152.036C569.404 148.314 588.797 150.224 606.421 157.525C624.045 164.825 639.108 177.187 649.706 193.048C660.304 208.909 665.961 227.557 665.961 246.633C665.932 272.204 655.761 296.72 637.679 314.802C619.598 332.883 595.082 343.054 569.511 343.083V343.083ZM569.511 151.936C550.781 151.936 532.473 157.49 516.9 167.896C501.327 178.301 489.19 193.091 482.022 210.394C474.855 227.698 472.98 246.738 476.634 265.107C480.288 283.477 489.307 300.35 502.55 313.593C515.794 326.837 532.667 335.856 551.036 339.51C569.406 343.164 588.446 341.288 605.749 334.121C623.053 326.954 637.843 314.816 648.248 299.243C658.653 283.671 664.207 265.362 664.207 246.633C664.179 221.527 654.193 197.457 636.44 179.704C618.687 161.951 594.617 151.965 569.511 151.936V151.936Z" fill="black"/>
<path opacity="0.3" d="M569.511 379.909C496.022 379.909 436.234 320.122 436.234 246.633C436.234 173.144 496.022 113.356 569.511 113.356C643 113.356 702.787 173.144 702.787 246.633C702.787 320.122 643 379.909 569.511 379.909ZM569.511 115.11C496.988 115.11 437.988 174.111 437.988 246.633C437.988 319.155 496.988 378.156 569.511 378.156C642.032 378.156 701.034 319.155 701.034 246.633C701.034 174.111 642.032 115.11 569.511 115.11Z" fill="black"/>
<path opacity="0.3" d="M569.511 410.598C479.1 410.598 405.545 337.044 405.545 246.633C405.545 156.222 479.1 82.6676 569.511 82.6676C659.922 82.6676 733.476 156.222 733.476 246.633C733.476 337.044 659.922 410.598 569.511 410.598ZM569.511 84.4212C480.067 84.4212 407.299 157.189 407.299 246.633C407.299 336.077 480.067 408.845 569.511 408.845C658.955 408.845 731.722 336.077 731.722 246.633C731.722 157.189 658.955 84.4212 569.511 84.4212V84.4212Z" fill="black"/>
<path opacity="0.3" d="M569.511 262.416C578.711 262.416 586.17 254.957 586.17 245.756C586.17 236.555 578.711 229.096 569.511 229.096C560.31 229.096 552.851 236.555 552.851 245.756C552.851 254.957 560.31 262.416 569.511 262.416Z" fill="#A5A5A5"/>
<path opacity="0.3" d="M586.66 310.319C595.86 310.319 603.319 302.86 603.319 293.66C603.319 284.459 595.86 277 586.66 277C577.459 277 570 284.459 570 293.66C570 302.86 577.459 310.319 586.66 310.319Z" fill="#A5A5A5"/>
<path opacity="0.3" d="M495.858 303.626C505.059 303.626 512.517 296.167 512.517 286.967C512.517 277.766 505.059 270.307 495.858 270.307C486.657 270.307 479.198 277.766 479.198 286.967C479.198 296.167 486.657 303.626 495.858 303.626Z" fill="#A5A5A5"/>
<path d="M569.511 253.647C573.869 253.647 577.402 250.114 577.402 245.756C577.402 241.398 573.869 237.865 569.511 237.865C565.152 237.865 561.619 241.398 561.619 245.756C561.619 250.114 565.152 253.647 569.511 253.647Z" fill="#2F2E41"/>
<path d="M495.858 294.858C500.216 294.858 503.749 291.325 503.749 286.967C503.749 282.608 500.216 279.075 495.858 279.075C491.499 279.075 487.966 282.608 487.966 286.967C487.966 291.325 491.499 294.858 495.858 294.858Z" fill="#2F2E41"/>
<path d="M612.475 302.749C616.833 302.749 620.366 299.216 620.366 294.858C620.366 290.5 616.833 286.967 612.475 286.967C608.117 286.967 604.583 290.5 604.583 294.858C604.583 299.216 608.117 302.749 612.475 302.749Z" fill="#2F2E41"/>
<path d="M937.775 165.089C942.133 165.089 945.666 161.556 945.666 157.197C945.666 152.839 942.133 149.306 937.775 149.306C933.417 149.306 929.884 152.839 929.884 157.197C929.884 161.556 933.417 165.089 937.775 165.089Z" fill="#7E0000"/>
<path d="M569.949 246.194H568.195V155.882H916.293V157.636H569.949V246.194Z" fill="#D946B8"/>
<path d="M937.775 179.995C933.266 179.995 928.858 178.658 925.109 176.153C921.36 173.648 918.438 170.087 916.713 165.921C914.987 161.756 914.536 157.172 915.416 152.75C916.295 148.327 918.466 144.265 921.655 141.077C924.843 137.889 928.905 135.718 933.327 134.838C937.75 133.958 942.333 134.41 946.499 136.135C950.665 137.861 954.225 140.783 956.73 144.532C959.235 148.281 960.572 152.688 960.572 157.197C960.565 163.241 958.161 169.036 953.888 173.31C949.614 177.584 943.819 179.988 937.775 179.995V179.995ZM937.775 136.154C933.613 136.154 929.544 137.388 926.084 139.7C922.623 142.012 919.926 145.299 918.333 149.144C916.74 152.989 916.324 157.221 917.136 161.303C917.948 165.385 919.952 169.134 922.895 172.077C925.838 175.02 929.587 177.025 933.669 177.837C937.752 178.649 941.983 178.232 945.828 176.639C949.673 175.046 952.96 172.349 955.272 168.888C957.584 165.428 958.819 161.359 958.819 157.197C958.812 151.618 956.593 146.269 952.648 142.324C948.703 138.379 943.354 136.16 937.775 136.154V136.154Z" fill="#D946B8"/>
<path d="M885.166 392.185C889.524 392.185 893.057 388.652 893.057 384.294C893.057 379.935 889.524 376.402 885.166 376.402C880.807 376.402 877.274 379.935 877.274 384.294C877.274 388.652 880.807 392.185 885.166 392.185Z" fill="#7E0000"/>
<path d="M885.166 407.091C880.657 407.091 876.249 405.754 872.5 403.249C868.751 400.744 865.829 397.183 864.104 393.018C862.378 388.852 861.927 384.268 862.806 379.846C863.686 375.424 865.857 371.362 869.046 368.173C872.234 364.985 876.296 362.814 880.718 361.934C885.14 361.055 889.724 361.506 893.89 363.232C898.056 364.957 901.616 367.879 904.121 371.628C906.626 375.377 907.963 379.785 907.963 384.294C907.956 390.338 905.552 396.132 901.278 400.406C897.005 404.68 891.21 407.084 885.166 407.091V407.091ZM885.166 363.25C881.004 363.25 876.935 364.484 873.474 366.796C870.014 369.109 867.317 372.395 865.724 376.241C864.131 380.086 863.714 384.317 864.526 388.399C865.338 392.481 867.343 396.231 870.286 399.174C873.229 402.117 876.978 404.121 881.06 404.933C885.142 405.745 889.374 405.328 893.219 403.735C897.064 402.143 900.351 399.445 902.663 395.985C904.975 392.524 906.209 388.456 906.209 384.294C906.203 378.714 903.984 373.366 900.039 369.421C896.094 365.475 890.745 363.256 885.166 363.25V363.25Z" fill="#D946B8"/>
<path d="M251.225 201.915C255.583 201.915 259.116 198.382 259.116 194.024C259.116 189.665 255.583 186.132 251.225 186.132C246.867 186.132 243.334 189.665 243.334 194.024C243.334 198.382 246.867 201.915 251.225 201.915Z" fill="#7E0000"/>
<path d="M251.225 216.821C246.716 216.821 242.309 215.484 238.56 212.979C234.811 210.474 231.889 206.913 230.163 202.748C228.438 198.582 227.986 193.998 228.866 189.576C229.745 185.154 231.917 181.092 235.105 177.904C238.293 174.715 242.355 172.544 246.778 171.664C251.2 170.785 255.784 171.236 259.949 172.962C264.115 174.687 267.675 177.609 270.18 181.358C272.685 185.107 274.022 189.515 274.022 194.024C274.016 200.068 271.611 205.862 267.338 210.136C263.064 214.41 257.269 216.814 251.225 216.821V216.821ZM251.225 172.98C247.063 172.98 242.994 174.214 239.534 176.526C236.073 178.839 233.376 182.125 231.783 185.971C230.19 189.816 229.774 194.047 230.586 198.129C231.398 202.211 233.402 205.961 236.345 208.904C239.288 211.847 243.038 213.851 247.12 214.663C251.202 215.475 255.433 215.058 259.278 213.466C263.123 211.873 266.41 209.176 268.722 205.715C271.035 202.254 272.269 198.186 272.269 194.024C272.262 188.445 270.043 183.096 266.098 179.151C262.153 175.206 256.804 172.986 251.225 172.98V172.98Z" fill="#D946B8"/>
<path d="M496.735 286.967H494.981V198.394L273.132 194.9L273.159 193.147L496.735 196.668V286.967Z" fill="#D946B8"/>
<path d="M863.245 385.17H611.598V294.858H613.352V383.417H863.245V385.17Z" fill="#D946B8"/>
<path d="M986 198.408H889.55V204.546H986V198.408Z" fill="#2F2E41"/>
<path d="M986 215.944H889.55V222.082H986V215.944Z" fill="#2F2E41"/>
<path d="M986 233.481H889.55V239.618H986V233.481Z" fill="#2F2E41"/>
<path d="M933.391 425.504H836.941V431.642H933.391V425.504Z" fill="#2F2E41"/>
<path d="M933.391 443.04H836.941V449.178H933.391V443.04Z" fill="#2F2E41"/>
<path d="M933.391 460.577H836.941V466.715H933.391V460.577Z" fill="#2F2E41"/>
<path d="M299.45 236.111H203V242.249H299.45V236.111Z" fill="#2F2E41"/>
<path d="M299.45 253.647H203V259.785H299.45V253.647Z" fill="#2F2E41"/>
<path d="M299.45 271.184H203V277.322H299.45V271.184Z" fill="#2F2E41"/>
<path d="M577.402 581.585C683.454 581.585 769.426 578.837 769.426 575.447C769.426 572.057 683.454 569.309 577.402 569.309C471.35 569.309 385.379 572.057 385.379 575.447C385.379 578.837 471.35 581.585 577.402 581.585Z" fill="#F2F2F2"/>
<g filter="url(#filter0_d)">
<path d="M648 608.336H0V610.336H648V608.336Z" fill="#2F2E41"/>
</g>
<path d="M73.9911 179.187C73.9911 179.187 83.1697 205.31 77.5213 209.329C71.873 213.348 96.5846 246.171 96.5846 246.171L126.239 238.133L109.999 210.669C109.999 210.669 107.881 183.206 107.881 179.187C107.881 175.168 73.9911 179.187 73.9911 179.187Z" fill="#FFB8B8"/>
<path opacity="0.1" d="M73.9911 179.187C73.9911 179.187 83.1697 205.31 77.5213 209.329C71.873 213.348 96.5846 246.171 96.5846 246.171L126.239 238.133L109.999 210.669C109.999 210.669 107.881 183.206 107.881 179.187C107.881 175.168 73.9911 179.187 73.9911 179.187Z" fill="black"/>
<path d="M58.5848 365.402C58.5848 365.402 55.9055 398.894 58.5848 416.309C61.2642 433.725 65.2832 481.954 65.2832 481.954C65.2832 481.954 65.2832 573.052 80.0197 574.391C94.7561 575.731 105.474 577.071 106.813 571.712C108.153 566.353 100.115 563.674 104.134 560.995C108.153 558.315 109.493 548.937 104.134 538.22C98.7752 527.503 104.134 418.989 104.134 418.989L129.588 487.312C129.588 487.312 132.267 543.579 134.946 551.617C137.626 559.655 132.267 574.391 141.645 575.731C151.023 577.071 161.74 569.033 167.099 566.353C172.457 563.674 159.061 563.674 161.74 562.334C164.419 560.995 172.457 556.976 169.778 555.636C167.099 554.296 164.419 489.992 164.419 489.992C164.419 489.992 157.051 352.675 147.673 347.316C138.295 341.957 132.267 351.188 132.267 351.188L58.5848 365.402Z" fill="#2F2E41"/>
<path d="M82.699 569.033V579.75C82.699 579.75 70.6419 608.883 82.699 608.883C94.7561 608.883 104.134 611.902 104.134 607.883V571.712L82.699 569.033Z" fill="#2F2E41"/>
<path d="M161.74 569.014V579.731C161.74 579.731 173.797 608.864 161.74 608.864C149.683 608.864 140.305 611.883 140.305 607.864V571.693L161.74 569.014Z" fill="#2F2E41"/>
<path d="M92.7466 198.612C106.064 198.612 116.861 187.816 116.861 174.498C116.861 161.18 106.064 150.384 92.7466 150.384C79.4287 150.384 68.6324 161.18 68.6324 174.498C68.6324 187.816 79.4287 198.612 92.7466 198.612Z" fill="#FFB8B8"/>
<path d="M85.3784 219.377C85.3784 219.377 92.0768 239.472 102.794 235.453L113.512 231.434L132.267 360.043C132.267 360.043 117.531 381.478 96.0958 368.081C74.661 354.684 85.3784 219.377 85.3784 219.377Z" fill="#D0CDE1"/>
<path d="M104.134 215.358L110.162 202.631C110.162 202.631 145.664 219.377 151.023 224.736C156.381 230.094 156.381 238.132 156.381 238.132L147.003 271.624C147.003 271.624 149.683 345.307 149.683 347.986C149.683 350.665 159.061 365.402 152.362 360.043C145.664 354.684 144.324 349.326 138.965 357.364C133.607 365.402 121.55 374.779 121.55 374.779L104.134 215.358Z" fill="#3F3D56"/>
<path d="M151.023 311.815L147.004 349.326C147.004 349.326 122.889 370.76 128.248 372.1C133.607 373.44 136.286 368.081 136.286 368.081C136.286 368.081 145.664 377.459 151.022 372.1C156.381 366.741 169.778 315.834 169.778 315.834L151.023 311.815Z" fill="#FFB8B8"/>
<path d="M93.2603 140.418C87.9145 140.227 82.1937 140.132 77.6864 143.013C75.6126 144.459 73.7936 146.239 72.304 148.282C67.9142 153.831 64.1212 160.814 65.7518 167.699L67.6457 166.96C67.6456 168.798 67.237 170.613 66.4495 172.274C66.7162 171.498 67.6093 172.752 67.3702 173.536L65.2839 180.381C66.146 180.115 67.0542 180.034 67.9498 180.141C68.8454 180.249 69.7085 180.543 70.4831 181.005C71.2577 181.468 71.9267 182.087 72.4466 182.824C72.9666 183.561 73.3261 184.4 73.5017 185.284C73.7401 177.335 74.5648 168.219 81.0136 163.564C84.2657 161.216 88.3816 160.5 92.3416 159.864C95.9948 159.277 99.8245 158.717 103.324 159.919C106.823 161.122 109.803 164.701 109.009 168.315C110.623 167.759 112.427 168.883 113.225 170.392C113.9 171.966 114.196 173.677 114.088 175.387C115.808 176.602 117.765 174.189 118.466 172.203C120.111 167.541 121.573 162.579 120.687 157.716C119.801 152.853 115.838 148.205 110.894 148.188C111.494 147.529 111.815 146.663 111.787 145.772L107.713 145.428C108.747 145.281 109.698 144.78 110.404 144.009C108.768 145.809 95.9057 140.512 93.2603 140.418Z" fill="#2F2E41"/>
<path d="M92.0768 211.339C92.0768 211.339 81.171 200.652 77.2461 201.307C73.3213 201.961 67.9626 211.339 67.9626 211.339C67.9626 211.339 35.8103 222.056 37.15 232.774C38.4897 243.491 53.2261 295.739 53.2261 295.739C53.2261 295.739 65.2832 358.703 54.5658 365.402C43.8484 372.1 105.474 389.516 106.813 381.478C108.153 373.44 110.832 293.059 106.813 281.002C102.794 268.945 92.0768 211.339 92.0768 211.339Z" fill="#3F3D56"/>
<path d="M49.2071 323.872L67.9626 331.91C67.9626 331.91 104.134 337.269 104.134 322.532C104.134 307.796 67.9626 315.834 67.9626 315.834L55.9047 311.978L49.2071 323.872Z" fill="#FFB8B8"/>
<path d="M138.965 232.774H155.531C155.531 232.774 167.099 283.681 168.438 289.04C169.778 294.399 172.457 319.853 171.118 319.853C169.778 319.853 142.984 314.494 142.984 318.513L138.965 232.774Z" fill="#3F3D56"/>
<path d="M53.2261 224.736L37.15 228.755L25.093 299.758C25.093 299.758 21.074 318.513 27.7723 319.853C34.4707 321.192 53.2262 331.91 53.2262 331.91C53.2262 331.91 55.9055 311.815 61.2642 311.815L47.8675 301.097L55.9055 254.209L53.2261 224.736Z" fill="#3F3D56"/>
<path d="M509 569.336H483V543.336H509V569.336ZM485 567.336H507V545.336H485V567.336Z" fill="#3F3D56"/>
<path d="M525 569.336C530.523 569.336 535 564.859 535 559.336C535 553.813 530.523 549.336 525 549.336C519.477 549.336 515 553.813 515 559.336C515 564.859 519.477 569.336 525 569.336Z" fill="#A5A5A5"/>
</g>
<defs>
<filter id="filter0_d" x="-50" y="562.336" width="748" height="102" filterUnits="userSpaceOnUse" color-interpolation-filters="sRGB">
<feFlood flood-opacity="0" result="BackgroundImageFix"/>
<feColorMatrix in="SourceAlpha" type="matrix" values="0 0 0 0 0 0 0 0 0 0 0 0 0 0 0 0 0 0 127 0"/>
<feOffset dy="4"/>
<feGaussianBlur stdDeviation="25"/>
<feColorMatrix type="matrix" values="0 0 0 0 0 0 0 0 0 0 0 0 0 0 0 0 0 0 0.75 0"/>
<feBlend mode="normal" in2="BackgroundImageFix" result="effect1_dropShadow"/>
<feBlend mode="normal" in="SourceGraphic" in2="effect1_dropShadow" result="shape"/>
</filter>
<clipPath id="clip0">
<rect width="989.07" height="610.336" fill="white"/>
</clipPath>
</defs>
</svg>
