<svg width="1188" height="796" viewBox="0 0 1188 796" fill="none" xmlns="http://www.w3.org/2000/svg">
<g clip-path="url(#clip0)">
<path d="M1136.29 356.1C1131.62 349.553 1126.67 343.22 1121.42 337.1C1094.87 306.036 1061.81 281.192 1024.59 264.33C1014.42 259.719 1003.98 255.734 993.32 252.4C985.92 250.08 978.393 248.08 970.74 246.4L956.3 243.57C919.935 237.486 882.724 238.684 846.825 247.095C810.927 255.507 777.057 270.964 747.18 292.57C740 291.697 732.733 291.113 725.38 290.82C725.1 290.05 724.81 289.28 724.51 288.5C722.057 282.007 719.427 275.607 716.62 269.3C700.945 233.98 679.895 201.299 654.22 172.42C653.04 171.1 651.86 169.78 650.66 168.48C633.55 149.769 614.602 132.827 594.1 117.91C530.37 71.621 453.627 46.6841 374.86 46.67H374.33C368.49 46.67 362.687 46.8067 356.92 47.08L334.65 48.76C332.82 48.95 330.99 49.15 329.17 49.38L306.66 52.78C300.7 53.86 294.79 55.09 288.93 56.47C209.287 75.2141 137.955 119.479 85.8 182.52C79.48 190.14 73.48 198.017 67.8 206.15C65.09 210.01 62.45 213.9 59.9 217.86C58.67 219.76 57.46 221.66 56.26 223.58C52.3 229.92 48.5467 236.383 45 242.97C41.22 249.95 37.66 257.057 34.32 264.29C34.2892 264.348 34.2625 264.408 34.24 264.47C23.5148 287.714 15.2272 312.007 9.51002 336.96V336.96C7.99668 343.52 6.66335 350.14 5.51002 356.82C5.05668 359.38 4.63668 361.947 4.25002 364.52L4.13002 365.38C3.13002 372.38 2.24002 379.38 1.59002 386.51L0.720016 386.59C0.790016 386.8 0.860016 387.01 0.910016 387.23C1.09795 387.343 1.29154 387.447 1.49002 387.54C1.41002 388.45 1.34002 389.36 1.27002 390.26C1.32034 391.068 1.25637 391.88 1.08002 392.67C0.360016 402.003 1.5896e-05 411.45 1.5896e-05 421.01C-0.0993842 481.425 14.5004 540.956 42.54 594.47L42.93 595.21C71.3314 649.058 112.389 695.201 162.57 729.67C202.47 757.149 247.354 776.569 294.7 786.84L302.97 788.53C314.397 790.743 326.007 792.41 337.8 793.53C349.8 794.69 361.977 795.273 374.33 795.28C391.5 795.286 408.65 794.116 425.66 791.78H866.05L869.63 792.33C923.547 800.282 978.612 792.2 1027.97 769.091C1077.33 745.982 1118.8 708.867 1147.22 662.365C1175.64 615.863 1189.76 562.029 1187.82 507.564C1185.88 453.098 1167.96 400.407 1136.29 356.05V356.1Z" fill="url(#paint0_linear)"/>
<path opacity="0.3" d="M989 560.95C988.95 557.68 988.84 554.45 988.66 551.21C988.447 547.143 988.15 543.093 987.77 539.06C986.674 527.624 984.861 516.268 982.34 505.06C982.23 504.56 982.11 504.06 981.99 503.55C979.99 494.917 977.6 486.44 974.82 478.12C972.94 472.533 970.89 467.05 968.67 461.67C967.883 459.73 967.07 457.813 966.23 455.92C962.364 447.027 958.024 438.348 953.23 429.92V429.92L952.6 428.82C951.15 426.3 949.6 423.82 948.12 421.31L947.51 420.31C947.22 419.84 946.93 419.44 946.68 418.99V418.93C944.72 415.817 942.7 412.753 940.62 409.74C934.091 400.272 926.977 391.221 919.32 382.64V382.64C908.037 370.007 895.622 358.432 882.23 348.06C882.23 348.06 882.23 348.06 882.23 348.06C878.9 345.51 875.53 343.01 872.08 340.59C835.088 314.553 792.214 298.101 747.3 292.71C740.12 291.837 732.853 291.253 725.5 290.96C723.69 290.88 721.88 290.83 720.07 290.8C718.07 290.74 716.07 290.73 714.07 290.73C702.328 290.73 690.598 291.471 678.95 292.95C659.498 295.436 640.368 300.002 621.89 306.57C597.684 264.931 562.974 230.373 521.228 206.349C479.483 182.326 432.164 169.678 384 169.67C374.192 169.662 364.391 170.186 354.64 171.24C353.56 171.33 352.48 171.46 351.4 171.59C338.177 173.151 325.086 175.674 312.23 179.14C308.41 172.86 304.34 166.71 300.03 160.76C295.72 154.81 291.34 149.17 286.66 143.67C282.66 139.003 278.533 134.463 274.28 130.05C274.148 129.903 274.007 129.762 273.86 129.63C267.221 122.817 260.232 116.355 252.92 110.27C249.02 107.01 245.03 103.85 240.92 100.83C235.78 96.99 230.503 93.3433 225.09 89.89C221.29 87.45 217.43 85.1167 213.51 82.89C164.211 106.434 120.632 140.432 85.8 182.52C79.48 190.14 73.48 198.017 67.8 206.15C65.09 210.01 62.45 213.9 59.9 217.86C58.67 219.76 57.46 221.66 56.26 223.58C52.3 229.92 48.5467 236.383 45 242.97C41.22 249.95 37.66 257.057 34.32 264.29C34.2892 264.348 34.2625 264.408 34.24 264.47C23.5148 287.714 15.2272 312.007 9.51002 336.96V336.96C7.99668 343.52 6.66335 350.14 5.51002 356.82C5.05668 359.38 4.63668 361.947 4.25002 364.52L4.13002 365.38C3.13002 372.38 2.24002 379.38 1.59002 386.51L0.720016 386.59C0.790016 386.8 0.860016 387.01 0.910016 387.23C1.09795 387.343 1.29154 387.447 1.49002 387.54C1.41002 388.45 1.34002 389.36 1.27002 390.26C1.32034 391.068 1.25637 391.88 1.08002 392.67C0.360016 402.003 1.5896e-05 411.45 1.5896e-05 421.01C-0.0993842 481.425 14.5004 540.956 42.54 594.47C42.87 594.52 43.21 594.57 43.54 594.6C78.7636 598.894 114.485 596.361 148.75 587.14C151.87 592.287 155.157 597.32 158.61 602.24C161.163 605.893 163.803 609.473 166.53 612.98C189.173 642.197 217.448 666.575 249.68 684.67C251.09 685.47 252.52 686.24 253.95 687.01C266.805 693.927 280.199 699.793 294 704.55C299.333 706.41 304.77 708.107 310.31 709.64C310.62 709.72 310.93 709.82 311.24 709.89C328.61 714.636 346.406 717.65 364.37 718.89C370.85 719.363 377.39 719.6 383.99 719.6C398.841 719.6 413.669 718.409 428.33 716.04C437.484 714.549 446.556 712.589 455.51 710.17V710.17C462.51 708.297 469.393 706.153 476.16 703.74C478.06 707 480.023 710.213 482.05 713.38C488.957 724.231 496.626 734.577 505 744.34C509.193 749.26 513.563 754.023 518.11 758.63C530.195 770.903 543.403 782.019 557.56 791.83H866.05L869.63 792.38C884.089 782.441 897.572 771.154 909.9 758.67C949.308 718.729 975.52 667.663 985 612.36C985.913 607.027 986.67 601.673 987.27 596.3C988.411 586.13 988.989 575.904 989 565.67C989 564.07 989 562.51 989 560.95Z" fill="#9FFD77"/>
<path d="M1188 517.54C1187.96 566.466 1175.03 614.519 1150.5 656.853C1125.97 699.187 1090.72 734.306 1048.29 758.67H506.83C506.163 753.903 505.56 749.14 505.02 744.38C504.59 740.82 504.19 737.27 503.81 733.71C503.15 727.53 502.57 721.3 502.12 715.02C499.72 681.4 501.12 647.02 514.52 616.93C516.212 613.079 518.108 609.32 520.2 605.67C523.296 600.294 526.789 595.156 530.65 590.3C534.073 586.011 537.746 581.927 541.65 578.07C546.896 572.906 552.478 568.096 558.36 563.67C561.17 561.54 564.06 559.47 567 557.48L567.54 557.12C582.61 546.98 599.19 538.68 615.89 531.6L619.35 530.16L620.25 529.79C621.88 529.11 623.51 528.46 625.14 527.79L625.79 527.53C634.597 524.023 643.467 520.77 652.4 517.77C667.573 512.657 682.963 508.26 698.57 504.58C702.45 503.66 706.343 502.79 710.25 501.97C714.03 501.163 717.82 500.403 721.62 499.69C730.027 498.09 738.467 496.703 746.94 495.53C747.82 495.41 748.69 495.29 749.57 495.19L755.11 494.46L756.11 494.34C757.7 494.14 759.3 493.96 760.9 493.78C767.43 493.03 773.97 492.39 780.51 491.78C780.77 491.78 781.02 491.78 781.27 491.69H781.33C788.257 491.103 795.19 490.557 802.13 490.05L806.99 489.69L810.99 489.41C818.91 488.85 826.83 488.29 834.75 487.73C841.17 487.24 847.58 486.73 853.99 486.16C855.08 486.07 856.16 485.98 857.25 485.87L859.46 485.66C859.661 485.655 859.862 485.635 860.06 485.6H860.34L864.05 485.23C864.123 485.225 864.197 485.225 864.27 485.23V485.23C865.34 485.13 866.39 485.02 867.45 484.9C875.95 484.02 884.45 482.98 892.89 481.71L895.47 481.33C910.104 479.088 924.588 475.956 938.84 471.95C942.093 471.023 945.327 470.043 948.54 469.01C952.227 467.817 955.893 466.55 959.54 465.21L961.08 464.64C963.62 463.64 966.14 462.64 968.64 461.64C972.28 460.14 975.88 458.53 979.42 456.84L979.88 456.63C984.093 454.63 988.227 452.483 992.28 450.19C994.16 449.13 996.03 448.03 997.87 446.9C1007.2 441.281 1015.99 434.814 1024.13 427.58C1024.75 427.02 1025.36 426.47 1025.96 425.91L1026.16 425.73C1034.11 418.187 1041.59 410.173 1048.58 401.73C1058.52 390.05 1068.14 378.04 1079.11 367.35C1082.31 364.23 1085.64 361.23 1089.11 358.35C1093.11 355.05 1097.19 351.94 1101.43 349.02L1102.06 348.58C1108.27 344.325 1114.73 340.461 1121.42 337.01C1126.65 343.123 1131.61 349.457 1136.29 356.01C1170.03 403.105 1188.11 459.609 1188 517.54V517.54Z" fill="#9FFD77"/>
<path opacity="0.2" d="M1188 517.54C1187.96 566.466 1175.03 614.519 1150.5 656.853C1125.97 699.187 1090.72 734.306 1048.29 758.67H506.83C506.163 753.903 505.56 749.14 505.02 744.38C504.59 740.82 504.19 737.27 503.81 733.71C503.15 727.53 502.57 721.3 502.12 715.02C499.72 681.4 501.12 647.02 514.52 616.93C516.212 613.079 518.108 609.32 520.2 605.67C523.296 600.294 526.789 595.156 530.65 590.3C534.073 586.011 537.746 581.927 541.65 578.07C546.896 572.906 552.478 568.096 558.36 563.67C561.17 561.54 564.06 559.47 567 557.48L567.54 557.12C582.61 546.98 599.19 538.68 615.89 531.6L619.35 530.16L620.25 529.79C621.88 529.11 623.51 528.46 625.14 527.79L625.79 527.53C634.597 524.023 643.467 520.77 652.4 517.77C667.573 512.657 682.963 508.26 698.57 504.58C702.45 503.66 706.343 502.79 710.25 501.97C714.03 501.163 717.82 500.403 721.62 499.69C730.027 498.09 738.467 496.703 746.94 495.53C747.82 495.41 748.69 495.29 749.57 495.19L755.11 494.46L756.11 494.34C757.7 494.14 759.3 493.96 760.9 493.78C767.43 493.03 773.97 492.39 780.51 491.78C780.77 491.78 781.02 491.78 781.27 491.69H781.33C788.257 491.103 795.19 490.557 802.13 490.05L806.99 489.69L810.99 489.41C818.91 488.85 826.83 488.29 834.75 487.73C841.17 487.24 847.58 486.73 853.99 486.16C855.08 486.07 856.16 485.98 857.25 485.87L859.46 485.66C859.661 485.655 859.862 485.635 860.06 485.6H860.34L864.05 485.23C864.123 485.225 864.197 485.225 864.27 485.23V485.23C865.34 485.13 866.39 485.02 867.45 484.9C875.95 484.02 884.45 482.98 892.89 481.71L895.47 481.33C910.104 479.088 924.588 475.956 938.84 471.95C942.093 471.023 945.327 470.043 948.54 469.01C952.227 467.817 955.893 466.55 959.54 465.21L961.08 464.64C963.62 463.64 966.14 462.64 968.64 461.64C972.28 460.14 975.88 458.53 979.42 456.84L979.88 456.63C984.093 454.63 988.227 452.483 992.28 450.19C994.16 449.13 996.03 448.03 997.87 446.9C1007.2 441.281 1015.99 434.814 1024.13 427.58C1024.75 427.02 1025.36 426.47 1025.96 425.91L1026.16 425.73C1034.11 418.187 1041.59 410.173 1048.58 401.73C1058.52 390.05 1068.14 378.04 1079.11 367.35C1082.31 364.23 1085.64 361.23 1089.11 358.35C1093.11 355.05 1097.19 351.94 1101.43 349.02L1102.06 348.58C1108.27 344.325 1114.73 340.461 1121.42 337.01C1126.65 343.123 1131.61 349.457 1136.29 356.01C1170.03 403.105 1188.11 459.609 1188 517.54V517.54Z" fill="black"/>
<path d="M197.29 511.87C200.278 511.87 202.7 508.696 202.7 504.78C202.7 500.864 200.278 497.69 197.29 497.69C194.302 497.69 191.88 500.864 191.88 504.78C191.88 508.696 194.302 511.87 197.29 511.87Z" fill="#3F3D56"/>
<path d="M197.29 503.21C200.278 503.21 202.7 500.036 202.7 496.12C202.7 492.204 200.278 489.03 197.29 489.03C194.302 489.03 191.88 492.204 191.88 496.12C191.88 500.036 194.302 503.21 197.29 503.21Z" fill="#3F3D56"/>
<path d="M197.29 494.55C200.278 494.55 202.7 491.376 202.7 487.46C202.7 483.544 200.278 480.37 197.29 480.37C194.302 480.37 191.88 483.544 191.88 487.46C191.88 491.376 194.302 494.55 197.29 494.55Z" fill="#3F3D56"/>
<path d="M197.29 485.89C200.278 485.89 202.7 482.716 202.7 478.8C202.7 474.884 200.278 471.71 197.29 471.71C194.302 471.71 191.88 474.884 191.88 478.8C191.88 482.716 194.302 485.89 197.29 485.89Z" fill="#3F3D56"/>
<path d="M197.29 477.23C200.278 477.23 202.7 474.056 202.7 470.14C202.7 466.224 200.278 463.05 197.29 463.05C194.302 463.05 191.88 466.224 191.88 470.14C191.88 474.056 194.302 477.23 197.29 477.23Z" fill="#3F3D56"/>
<path d="M197.29 468.57C200.278 468.57 202.7 465.396 202.7 461.48C202.7 457.564 200.278 454.39 197.29 454.39C194.302 454.39 191.88 457.564 191.88 461.48C191.88 465.396 194.302 468.57 197.29 468.57Z" fill="#3F3D56"/>
<path d="M197.29 459.91C200.278 459.91 202.7 456.736 202.7 452.82C202.7 448.904 200.278 445.73 197.29 445.73C194.302 445.73 191.88 448.904 191.88 452.82C191.88 456.736 194.302 459.91 197.29 459.91Z" fill="#3F3D56"/>
<path d="M217.55 393.55C218.285 392.597 218.953 391.595 219.55 390.55L205.33 388.22L220.71 388.33C222.183 385.119 222.986 381.642 223.07 378.11C223.154 374.579 222.518 371.067 221.2 367.79L200.56 378.49L219.56 364.49C217.781 361.403 215.384 358.716 212.52 356.596C209.657 354.476 206.386 352.969 202.914 352.17C199.442 351.37 195.842 351.294 192.34 351.948C188.837 352.601 185.507 353.969 182.556 355.967C179.606 357.965 177.099 360.549 175.192 363.559C173.284 366.568 172.018 369.939 171.471 373.46C170.925 376.981 171.109 380.576 172.014 384.023C172.919 387.469 174.524 390.692 176.73 393.49C175.562 394.954 174.556 396.54 173.73 398.22L192.2 407.81L172.51 401.2C171.126 405.286 170.784 409.653 171.514 413.905C172.243 418.157 174.023 422.159 176.69 425.55C173.681 429.375 171.81 433.969 171.289 438.807C170.768 443.646 171.619 448.533 173.745 452.91C175.871 457.287 179.186 460.978 183.311 463.56C187.436 466.142 192.204 467.512 197.07 467.512C201.936 467.512 206.704 466.142 210.829 463.56C214.954 460.978 218.269 457.287 220.395 452.91C222.521 448.533 223.372 443.646 222.851 438.807C222.33 433.969 220.459 429.375 217.45 425.55C221.046 420.981 223.001 415.335 223.001 409.52C223.001 403.705 221.046 398.059 217.45 393.49L217.55 393.55Z" fill="#9FFD77"/>
<path opacity="0.03" d="M171.24 409.58C171.241 415.385 173.196 421.021 176.79 425.58C173.781 429.405 171.91 433.999 171.389 438.837C170.868 443.676 171.719 448.563 173.845 452.94C175.971 457.317 179.286 461.008 183.411 463.59C187.536 466.173 192.304 467.542 197.17 467.542C202.036 467.542 206.804 466.173 210.929 463.59C215.054 461.008 218.369 457.317 220.495 452.94C222.621 448.563 223.472 443.676 222.951 438.837C222.43 433.999 220.559 429.405 217.55 425.58C221 421.2 171.24 406.67 171.24 409.58Z" fill="black"/>
<path d="M254.29 534.87C257.278 534.87 259.7 531.696 259.7 527.78C259.7 523.864 257.278 520.69 254.29 520.69C251.302 520.69 248.88 523.864 248.88 527.78C248.88 531.696 251.302 534.87 254.29 534.87Z" fill="#3F3D56"/>
<path d="M254.29 526.21C257.278 526.21 259.7 523.036 259.7 519.12C259.7 515.204 257.278 512.03 254.29 512.03C251.302 512.03 248.88 515.204 248.88 519.12C248.88 523.036 251.302 526.21 254.29 526.21Z" fill="#3F3D56"/>
<path d="M254.29 517.55C257.278 517.55 259.7 514.376 259.7 510.46C259.7 506.544 257.278 503.37 254.29 503.37C251.302 503.37 248.88 506.544 248.88 510.46C248.88 514.376 251.302 517.55 254.29 517.55Z" fill="#3F3D56"/>
<path d="M254.29 508.89C257.278 508.89 259.7 505.716 259.7 501.8C259.7 497.884 257.278 494.71 254.29 494.71C251.302 494.71 248.88 497.884 248.88 501.8C248.88 505.716 251.302 508.89 254.29 508.89Z" fill="#3F3D56"/>
<path d="M254.29 500.23C257.278 500.23 259.7 497.056 259.7 493.14C259.7 489.224 257.278 486.05 254.29 486.05C251.302 486.05 248.88 489.224 248.88 493.14C248.88 497.056 251.302 500.23 254.29 500.23Z" fill="#3F3D56"/>
<path d="M254.29 491.57C257.278 491.57 259.7 488.396 259.7 484.48C259.7 480.564 257.278 477.39 254.29 477.39C251.302 477.39 248.88 480.564 248.88 484.48C248.88 488.396 251.302 491.57 254.29 491.57Z" fill="#3F3D56"/>
<path d="M254.29 482.91C257.278 482.91 259.7 479.736 259.7 475.82C259.7 471.904 257.278 468.73 254.29 468.73C251.302 468.73 248.88 471.904 248.88 475.82C248.88 479.736 251.302 482.91 254.29 482.91Z" fill="#3F3D56"/>
<path d="M274.55 416.55C275.284 415.597 275.953 414.595 276.55 413.55L262.33 411.22L277.71 411.33C279.183 408.119 279.986 404.642 280.07 401.11C280.154 397.579 279.518 394.067 278.2 390.79L257.56 401.49L276.56 387.49C274.781 384.403 272.384 381.716 269.52 379.596C266.657 377.476 263.386 375.969 259.914 375.17C256.442 374.37 252.842 374.294 249.34 374.948C245.837 375.601 242.507 376.969 239.556 378.967C236.606 380.965 234.099 383.549 232.192 386.559C230.284 389.568 229.018 392.939 228.471 396.46C227.925 399.981 228.109 403.576 229.014 407.023C229.919 410.469 231.524 413.692 233.73 416.49C232.562 417.954 231.556 419.54 230.73 421.22L249.2 430.81L229.51 424.2C228.126 428.286 227.784 432.653 228.514 436.905C229.243 441.157 231.023 445.159 233.69 448.55C230.681 452.375 228.81 456.969 228.289 461.807C227.768 466.646 228.619 471.533 230.745 475.91C232.871 480.287 236.186 483.978 240.311 486.56C244.436 489.142 249.204 490.512 254.07 490.512C258.936 490.512 263.704 489.142 267.829 486.56C271.954 483.978 275.269 480.287 277.395 475.91C279.521 471.533 280.372 466.646 279.851 461.807C279.33 456.969 277.459 452.375 274.45 448.55C278.046 443.981 280.001 438.335 280.001 432.52C280.001 426.705 278.046 421.059 274.45 416.49L274.55 416.55Z" fill="#9FFD77"/>
<path opacity="0.03" d="M228.24 432.58C228.241 438.385 230.196 444.021 233.79 448.58C230.781 452.405 228.91 456.999 228.389 461.837C227.868 466.676 228.719 471.563 230.845 475.94C232.971 480.317 236.286 484.008 240.411 486.59C244.536 489.173 249.304 490.542 254.17 490.542C259.036 490.542 263.804 489.173 267.929 486.59C272.054 484.008 275.369 480.317 277.495 475.94C279.621 471.563 280.472 466.676 279.951 461.837C279.43 456.999 277.559 452.405 274.55 448.58C278 444.2 228.24 429.67 228.24 432.58Z" fill="black"/>
<path d="M621.29 555.87C624.278 555.87 626.7 552.696 626.7 548.78C626.7 544.864 624.278 541.69 621.29 541.69C618.302 541.69 615.88 544.864 615.88 548.78C615.88 552.696 618.302 555.87 621.29 555.87Z" fill="#3F3D56"/>
<path d="M621.29 547.21C624.278 547.21 626.7 544.036 626.7 540.12C626.7 536.204 624.278 533.03 621.29 533.03C618.302 533.03 615.88 536.204 615.88 540.12C615.88 544.036 618.302 547.21 621.29 547.21Z" fill="#3F3D56"/>
<path d="M621.29 538.55C624.278 538.55 626.7 535.376 626.7 531.46C626.7 527.544 624.278 524.37 621.29 524.37C618.302 524.37 615.88 527.544 615.88 531.46C615.88 535.376 618.302 538.55 621.29 538.55Z" fill="#3F3D56"/>
<path d="M621.29 529.89C624.278 529.89 626.7 526.716 626.7 522.8C626.7 518.884 624.278 515.71 621.29 515.71C618.302 515.71 615.88 518.884 615.88 522.8C615.88 526.716 618.302 529.89 621.29 529.89Z" fill="#3F3D56"/>
<path d="M621.29 521.23C624.278 521.23 626.7 518.056 626.7 514.14C626.7 510.224 624.278 507.05 621.29 507.05C618.302 507.05 615.88 510.224 615.88 514.14C615.88 518.056 618.302 521.23 621.29 521.23Z" fill="#3F3D56"/>
<path d="M621.29 512.57C624.278 512.57 626.7 509.396 626.7 505.48C626.7 501.564 624.278 498.39 621.29 498.39C618.302 498.39 615.88 501.564 615.88 505.48C615.88 509.396 618.302 512.57 621.29 512.57Z" fill="#3F3D56"/>
<path d="M621.29 503.91C624.278 503.91 626.7 500.736 626.7 496.82C626.7 492.904 624.278 489.73 621.29 489.73C618.302 489.73 615.88 492.904 615.88 496.82C615.88 500.736 618.302 503.91 621.29 503.91Z" fill="#3F3D56"/>
<path d="M641.55 437.55C642.284 436.597 642.953 435.595 643.55 434.55L629.33 432.22L644.71 432.33C646.183 429.119 646.986 425.642 647.07 422.11C647.154 418.579 646.518 415.067 645.2 411.79L624.56 422.49L643.56 408.49C641.781 405.403 639.384 402.716 636.52 400.596C633.657 398.476 630.386 396.969 626.914 396.17C623.442 395.37 619.842 395.294 616.34 395.948C612.837 396.601 609.507 397.969 606.556 399.967C603.606 401.965 601.099 404.549 599.192 407.559C597.284 410.568 596.018 413.939 595.471 417.46C594.924 420.981 595.109 424.576 596.014 428.023C596.919 431.469 598.524 434.692 600.73 437.49C599.562 438.954 598.556 440.54 597.73 442.22L616.2 451.81L596.51 445.2C595.126 449.286 594.784 453.653 595.514 457.905C596.243 462.157 598.023 466.159 600.69 469.55C597.681 473.375 595.81 477.969 595.289 482.807C594.768 487.646 595.619 492.533 597.745 496.91C599.871 501.287 603.186 504.978 607.311 507.56C611.436 510.142 616.204 511.512 621.07 511.512C625.936 511.512 630.704 510.142 634.829 507.56C638.954 504.978 642.269 501.287 644.395 496.91C646.521 492.533 647.372 487.646 646.851 482.807C646.33 477.969 644.459 473.375 641.45 469.55C645.046 464.981 647.001 459.335 647.001 453.52C647.001 447.705 645.046 442.059 641.45 437.49L641.55 437.55Z" fill="#9FFD77"/>
<path opacity="0.03" d="M595.24 453.58C595.241 459.385 597.196 465.021 600.79 469.58C597.781 473.405 595.91 477.999 595.389 482.837C594.868 487.676 595.72 492.563 597.845 496.94C599.971 501.317 603.286 505.008 607.411 507.59C611.536 510.173 616.304 511.542 621.17 511.542C626.036 511.542 630.804 510.173 634.929 507.59C639.054 505.008 642.369 501.317 644.495 496.94C646.621 492.563 647.472 487.676 646.951 482.837C646.43 477.999 644.559 473.405 641.55 469.58C645 465.2 595.24 450.67 595.24 453.58Z" fill="black"/>
<path d="M678.29 590.87C681.278 590.87 683.7 587.696 683.7 583.78C683.7 579.864 681.278 576.69 678.29 576.69C675.302 576.69 672.88 579.864 672.88 583.78C672.88 587.696 675.302 590.87 678.29 590.87Z" fill="#3F3D56"/>
<path d="M678.29 582.21C681.278 582.21 683.7 579.036 683.7 575.12C683.7 571.204 681.278 568.03 678.29 568.03C675.302 568.03 672.88 571.204 672.88 575.12C672.88 579.036 675.302 582.21 678.29 582.21Z" fill="#3F3D56"/>
<path d="M678.29 573.55C681.278 573.55 683.7 570.376 683.7 566.46C683.7 562.544 681.278 559.37 678.29 559.37C675.302 559.37 672.88 562.544 672.88 566.46C672.88 570.376 675.302 573.55 678.29 573.55Z" fill="#3F3D56"/>
<path d="M678.29 564.89C681.278 564.89 683.7 561.716 683.7 557.8C683.7 553.884 681.278 550.71 678.29 550.71C675.302 550.71 672.88 553.884 672.88 557.8C672.88 561.716 675.302 564.89 678.29 564.89Z" fill="#3F3D56"/>
<path d="M678.29 556.23C681.278 556.23 683.7 553.056 683.7 549.14C683.7 545.224 681.278 542.05 678.29 542.05C675.302 542.05 672.88 545.224 672.88 549.14C672.88 553.056 675.302 556.23 678.29 556.23Z" fill="#3F3D56"/>
<path d="M678.29 547.57C681.278 547.57 683.7 544.396 683.7 540.48C683.7 536.564 681.278 533.39 678.29 533.39C675.302 533.39 672.88 536.564 672.88 540.48C672.88 544.396 675.302 547.57 678.29 547.57Z" fill="#3F3D56"/>
<path d="M678.29 538.91C681.278 538.91 683.7 535.736 683.7 531.82C683.7 527.904 681.278 524.73 678.29 524.73C675.302 524.73 672.88 527.904 672.88 531.82C672.88 535.736 675.302 538.91 678.29 538.91Z" fill="#3F3D56"/>
<path d="M698.55 472.55C699.284 471.597 699.953 470.595 700.55 469.55L686.33 467.22L701.71 467.33C703.183 464.119 703.986 460.642 704.07 457.11C704.154 453.579 703.518 450.067 702.2 446.79L681.56 457.49L700.56 443.49C698.781 440.403 696.384 437.716 693.52 435.596C690.657 433.476 687.386 431.969 683.914 431.17C680.442 430.37 676.842 430.294 673.34 430.948C669.837 431.601 666.507 432.969 663.556 434.967C660.606 436.965 658.099 439.549 656.192 442.559C654.284 445.568 653.018 448.939 652.471 452.46C651.924 455.981 652.109 459.576 653.014 463.023C653.919 466.469 655.524 469.692 657.73 472.49C656.562 473.954 655.556 475.54 654.73 477.22L673.2 486.81L653.51 480.2C652.126 484.286 651.784 488.653 652.514 492.905C653.243 497.157 655.023 501.159 657.69 504.55C654.681 508.375 652.81 512.969 652.289 517.807C651.768 522.646 652.619 527.533 654.745 531.91C656.871 536.287 660.186 539.978 664.311 542.56C668.436 545.142 673.204 546.512 678.07 546.512C682.936 546.512 687.704 545.142 691.829 542.56C695.954 539.978 699.269 536.287 701.395 531.91C703.521 527.533 704.372 522.646 703.851 517.807C703.33 512.969 701.459 508.375 698.45 504.55C702.046 499.981 704.001 494.335 704.001 488.52C704.001 482.705 702.046 477.059 698.45 472.49L698.55 472.55Z" fill="#9FFD77"/>
<path opacity="0.03" d="M652.24 488.58C652.241 494.385 654.196 500.021 657.79 504.58C654.781 508.405 652.91 512.999 652.389 517.837C651.868 522.676 652.72 527.563 654.845 531.94C656.971 536.317 660.286 540.008 664.411 542.59C668.536 545.173 673.304 546.542 678.17 546.542C683.036 546.542 687.804 545.173 691.929 542.59C696.054 540.008 699.369 536.317 701.495 531.94C703.621 527.563 704.472 522.676 703.951 517.837C703.43 512.999 701.559 508.405 698.55 504.58C702 500.2 652.24 485.67 652.24 488.58Z" fill="black"/>
<path d="M736.29 635.87C739.278 635.87 741.7 632.696 741.7 628.78C741.7 624.864 739.278 621.69 736.29 621.69C733.302 621.69 730.88 624.864 730.88 628.78C730.88 632.696 733.302 635.87 736.29 635.87Z" fill="#3F3D56"/>
<path d="M736.29 627.21C739.278 627.21 741.7 624.036 741.7 620.12C741.7 616.204 739.278 613.03 736.29 613.03C733.302 613.03 730.88 616.204 730.88 620.12C730.88 624.036 733.302 627.21 736.29 627.21Z" fill="#3F3D56"/>
<path d="M736.29 618.55C739.278 618.55 741.7 615.376 741.7 611.46C741.7 607.544 739.278 604.37 736.29 604.37C733.302 604.37 730.88 607.544 730.88 611.46C730.88 615.376 733.302 618.55 736.29 618.55Z" fill="#3F3D56"/>
<path d="M736.29 609.89C739.278 609.89 741.7 606.716 741.7 602.8C741.7 598.884 739.278 595.71 736.29 595.71C733.302 595.71 730.88 598.884 730.88 602.8C730.88 606.716 733.302 609.89 736.29 609.89Z" fill="#3F3D56"/>
<path d="M736.29 601.23C739.278 601.23 741.7 598.056 741.7 594.14C741.7 590.224 739.278 587.05 736.29 587.05C733.302 587.05 730.88 590.224 730.88 594.14C730.88 598.056 733.302 601.23 736.29 601.23Z" fill="#3F3D56"/>
<path d="M736.29 592.57C739.278 592.57 741.7 589.396 741.7 585.48C741.7 581.564 739.278 578.39 736.29 578.39C733.302 578.39 730.88 581.564 730.88 585.48C730.88 589.396 733.302 592.57 736.29 592.57Z" fill="#3F3D56"/>
<path d="M736.29 583.91C739.278 583.91 741.7 580.736 741.7 576.82C741.7 572.904 739.278 569.73 736.29 569.73C733.302 569.73 730.88 572.904 730.88 576.82C730.88 580.736 733.302 583.91 736.29 583.91Z" fill="#3F3D56"/>
<path d="M756.55 517.55C757.284 516.597 757.953 515.595 758.55 514.55L744.33 512.22L759.71 512.33C761.183 509.119 761.986 505.642 762.07 502.11C762.154 498.579 761.518 495.067 760.2 491.79L739.56 502.49L758.56 488.49C756.781 485.403 754.384 482.716 751.52 480.596C748.657 478.476 745.386 476.969 741.914 476.17C738.442 475.37 734.842 475.294 731.34 475.948C727.837 476.601 724.507 477.969 721.556 479.967C718.606 481.965 716.099 484.549 714.192 487.559C712.284 490.568 711.018 493.939 710.471 497.46C709.924 500.981 710.109 504.576 711.014 508.023C711.919 511.469 713.524 514.692 715.73 517.49C714.562 518.954 713.556 520.54 712.73 522.22L731.2 531.81L711.51 525.2C710.126 529.286 709.784 533.653 710.514 537.905C711.243 542.157 713.023 546.159 715.69 549.55C712.681 553.375 710.81 557.969 710.289 562.807C709.768 567.646 710.619 572.533 712.745 576.91C714.871 581.287 718.186 584.978 722.311 587.56C726.436 590.142 731.204 591.512 736.07 591.512C740.936 591.512 745.704 590.142 749.829 587.56C753.954 584.978 757.269 581.287 759.395 576.91C761.521 572.533 762.372 567.646 761.851 562.807C761.33 557.969 759.459 553.375 756.45 549.55C760.046 544.981 762.001 539.335 762.001 533.52C762.001 527.705 760.046 522.059 756.45 517.49L756.55 517.55Z" fill="#9FFD77"/>
<path opacity="0.03" d="M710.24 533.58C710.241 539.385 712.196 545.021 715.79 549.58C712.781 553.405 710.91 557.999 710.389 562.837C709.868 567.676 710.72 572.563 712.845 576.94C714.971 581.317 718.286 585.008 722.411 587.59C726.536 590.172 731.304 591.542 736.17 591.542C741.036 591.542 745.804 590.172 749.929 587.59C754.054 585.008 757.369 581.317 759.495 576.94C761.621 572.563 762.472 567.676 761.951 562.837C761.43 557.999 759.559 553.405 756.55 549.58C760 545.2 710.24 530.67 710.24 533.58Z" fill="black"/>
<path d="M781.29 557.87C784.278 557.87 786.7 554.696 786.7 550.78C786.7 546.864 784.278 543.69 781.29 543.69C778.302 543.69 775.88 546.864 775.88 550.78C775.88 554.696 778.302 557.87 781.29 557.87Z" fill="#3F3D56"/>
<path d="M781.29 549.21C784.278 549.21 786.7 546.036 786.7 542.12C786.7 538.204 784.278 535.03 781.29 535.03C778.302 535.03 775.88 538.204 775.88 542.12C775.88 546.036 778.302 549.21 781.29 549.21Z" fill="#3F3D56"/>
<path d="M781.29 540.55C784.278 540.55 786.7 537.376 786.7 533.46C786.7 529.544 784.278 526.37 781.29 526.37C778.302 526.37 775.88 529.544 775.88 533.46C775.88 537.376 778.302 540.55 781.29 540.55Z" fill="#3F3D56"/>
<path d="M781.29 531.89C784.278 531.89 786.7 528.716 786.7 524.8C786.7 520.884 784.278 517.71 781.29 517.71C778.302 517.71 775.88 520.884 775.88 524.8C775.88 528.716 778.302 531.89 781.29 531.89Z" fill="#3F3D56"/>
<path d="M781.29 523.23C784.278 523.23 786.7 520.056 786.7 516.14C786.7 512.224 784.278 509.05 781.29 509.05C778.302 509.05 775.88 512.224 775.88 516.14C775.88 520.056 778.302 523.23 781.29 523.23Z" fill="#3F3D56"/>
<path d="M781.29 514.57C784.278 514.57 786.7 511.396 786.7 507.48C786.7 503.564 784.278 500.39 781.29 500.39C778.302 500.39 775.88 503.564 775.88 507.48C775.88 511.396 778.302 514.57 781.29 514.57Z" fill="#3F3D56"/>
<path d="M781.29 505.91C784.278 505.91 786.7 502.736 786.7 498.82C786.7 494.904 784.278 491.73 781.29 491.73C778.302 491.73 775.88 494.904 775.88 498.82C775.88 502.736 778.302 505.91 781.29 505.91Z" fill="#3F3D56"/>
<path d="M801.55 439.55C802.284 438.597 802.953 437.595 803.55 436.55L789.33 434.22L804.71 434.33C806.183 431.119 806.986 427.642 807.07 424.11C807.154 420.579 806.518 417.067 805.2 413.79L784.56 424.49L803.56 410.49C801.781 407.403 799.384 404.716 796.52 402.596C793.657 400.476 790.386 398.969 786.914 398.17C783.442 397.37 779.842 397.294 776.34 397.948C772.837 398.601 769.507 399.969 766.556 401.967C763.606 403.965 761.099 406.549 759.192 409.559C757.284 412.568 756.018 415.939 755.471 419.46C754.924 422.981 755.109 426.576 756.014 430.023C756.919 433.469 758.524 436.692 760.73 439.49C759.562 440.954 758.556 442.54 757.73 444.22L776.2 453.81L756.51 447.2C755.126 451.286 754.784 455.653 755.514 459.905C756.243 464.157 758.023 468.159 760.69 471.55C757.681 475.375 755.81 479.969 755.289 484.807C754.768 489.646 755.619 494.533 757.745 498.91C759.871 503.287 763.186 506.978 767.311 509.56C771.436 512.142 776.204 513.512 781.07 513.512C785.936 513.512 790.704 512.142 794.829 509.56C798.954 506.978 802.269 503.287 804.395 498.91C806.521 494.533 807.372 489.646 806.851 484.807C806.33 479.969 804.459 475.375 801.45 471.55C805.046 466.981 807.001 461.335 807.001 455.52C807.001 449.705 805.046 444.059 801.45 439.49L801.55 439.55Z" fill="#9FFD77"/>
<path opacity="0.03" d="M755.24 455.58C755.241 461.385 757.196 467.021 760.79 471.58C757.781 475.405 755.91 479.999 755.389 484.837C754.868 489.676 755.72 494.563 757.845 498.94C759.971 503.317 763.286 507.008 767.411 509.59C771.536 512.173 776.304 513.542 781.17 513.542C786.036 513.542 790.804 512.173 794.929 509.59C799.054 507.008 802.369 503.317 804.495 498.94C806.621 494.563 807.472 489.676 806.951 484.837C806.43 479.999 804.559 475.405 801.55 471.58C805 467.2 755.24 452.67 755.24 455.58Z" fill="black"/>
<path d="M1112.29 448.87C1115.28 448.87 1117.7 445.696 1117.7 441.78C1117.7 437.864 1115.28 434.69 1112.29 434.69C1109.3 434.69 1106.88 437.864 1106.88 441.78C1106.88 445.696 1109.3 448.87 1112.29 448.87Z" fill="#3F3D56"/>
<path d="M1112.29 440.21C1115.28 440.21 1117.7 437.036 1117.7 433.12C1117.7 429.204 1115.28 426.03 1112.29 426.03C1109.3 426.03 1106.88 429.204 1106.88 433.12C1106.88 437.036 1109.3 440.21 1112.29 440.21Z" fill="#3F3D56"/>
<path d="M1112.29 431.55C1115.28 431.55 1117.7 428.376 1117.7 424.46C1117.7 420.544 1115.28 417.37 1112.29 417.37C1109.3 417.37 1106.88 420.544 1106.88 424.46C1106.88 428.376 1109.3 431.55 1112.29 431.55Z" fill="#3F3D56"/>
<path d="M1112.29 422.89C1115.28 422.89 1117.7 419.716 1117.7 415.8C1117.7 411.884 1115.28 408.71 1112.29 408.71C1109.3 408.71 1106.88 411.884 1106.88 415.8C1106.88 419.716 1109.3 422.89 1112.29 422.89Z" fill="#3F3D56"/>
<path d="M1112.29 414.23C1115.28 414.23 1117.7 411.056 1117.7 407.14C1117.7 403.224 1115.28 400.05 1112.29 400.05C1109.3 400.05 1106.88 403.224 1106.88 407.14C1106.88 411.056 1109.3 414.23 1112.29 414.23Z" fill="#3F3D56"/>
<path d="M1112.29 405.57C1115.28 405.57 1117.7 402.396 1117.7 398.48C1117.7 394.564 1115.28 391.39 1112.29 391.39C1109.3 391.39 1106.88 394.564 1106.88 398.48C1106.88 402.396 1109.3 405.57 1112.29 405.57Z" fill="#3F3D56"/>
<path d="M1112.29 396.91C1115.28 396.91 1117.7 393.736 1117.7 389.82C1117.7 385.904 1115.28 382.73 1112.29 382.73C1109.3 382.73 1106.88 385.904 1106.88 389.82C1106.88 393.736 1109.3 396.91 1112.29 396.91Z" fill="#3F3D56"/>
<path d="M1138.1 378.67C1138.1 379.06 1138.1 379.47 1138.1 379.85C1138.1 380.23 1138.1 380.36 1138.1 380.61C1138.1 380.86 1138.1 380.99 1138.1 381.18C1138.1 381.37 1138.1 381.49 1138.1 381.64C1138.1 381.79 1138.03 382.19 1137.99 382.47C1137.99 382.58 1137.99 382.69 1137.99 382.81C1137.99 383.11 1137.89 383.38 1137.83 383.67C1137.81 383.838 1137.77 384.005 1137.73 384.17C1137.66 384.54 1137.57 384.89 1137.47 385.25C1137.37 385.61 1137.28 385.98 1137.17 386.32C1136.92 387.151 1136.63 387.965 1136.28 388.76C1136.12 389.16 1135.95 389.54 1135.76 389.92C1135.57 390.3 1135.42 390.61 1135.24 390.92C1135.06 391.23 1134.95 391.46 1134.8 391.72C1134.65 391.98 1134.5 392.22 1134.33 392.47C1134.16 392.72 1134.21 392.67 1134.14 392.78C1134.07 392.89 1133.86 393.21 1133.72 393.41C1133.58 393.61 1133.63 393.54 1133.57 393.61C1133.4 393.87 1133.21 394.13 1133.01 394.38C1132.02 395.677 1130.91 396.879 1129.7 397.97C1129.44 398.21 1129.18 398.43 1128.91 398.65L1128.82 398.72L1128.11 399.29L1127.73 399.56C1127.5 399.74 1127.25 399.91 1127.01 400.07C1125.88 400.853 1124.68 401.539 1123.43 402.12C1123.11 402.284 1122.77 402.427 1122.43 402.55C1122.11 402.69 1121.79 402.82 1121.43 402.93C1121.07 403.04 1121.02 403.1 1120.81 403.16L1120.45 403.29L1119.45 403.57L1118.45 403.84C1118.33 403.876 1118.2 403.903 1118.07 403.92L1117.22 404.1C1116.6 404.23 1115.98 404.34 1115.35 404.41H1115.25C1115.03 404.41 1114.8 404.47 1114.58 404.48C1114.32 404.515 1114.06 404.535 1113.8 404.54H1113.29C1112.94 404.54 1112.58 404.54 1112.22 404.54C1111.86 404.54 1111.52 404.54 1111.22 404.54H1110.83C1110.57 404.535 1110.32 404.515 1110.06 404.48C1109.85 404.475 1109.63 404.455 1109.42 404.42V404.42C1108.77 404.35 1108.13 404.27 1107.5 404.14C1107.16 404.08 1106.83 404 1106.5 403.92C1106.42 403.918 1106.35 403.901 1106.28 403.87C1104.88 403.54 1103.51 403.095 1102.18 402.54C1101.46 402.243 1100.76 401.909 1100.08 401.54C1099.76 401.37 1099.43 401.19 1099.08 401L1098.38 400.57C1097.92 400.29 1097.47 399.98 1097.03 399.66C1096.85 399.53 1096.67 399.4 1096.49 399.25C1096.36 399.161 1096.23 399.065 1096.11 398.96C1095.92 398.8 1095.73 398.66 1095.54 398.49C1095.48 398.458 1095.43 398.414 1095.39 398.36C1095.14 398.16 1094.9 397.93 1094.66 397.72C1093.85 396.97 1093.08 396.168 1092.37 395.32C1092.13 395.04 1091.9 394.75 1091.68 394.47C1091.46 394.19 1091.36 394.05 1091.22 393.84C1091.08 393.63 1090.98 393.51 1090.87 393.35C1090.76 393.19 1090.56 392.9 1090.41 392.66C1090.26 392.42 1090.04 392.06 1089.86 391.76C1089.5 391.16 1089.17 390.54 1088.86 389.91C1088.72 389.62 1088.59 389.34 1088.47 389.04C1088.24 388.54 1088.03 388.04 1087.84 387.47C1087.7 387.11 1087.58 386.74 1087.47 386.37C1087.36 386 1087.23 385.57 1087.13 385.16C1087.12 385.144 1087.12 385.126 1087.13 385.11C1087.04 384.75 1086.95 384.38 1086.88 384.03C1086.81 383.68 1086.75 383.41 1086.71 383.1C1086.67 382.79 1086.61 382.54 1086.57 382.26C1086.56 382.187 1086.56 382.113 1086.57 382.04C1086.51 381.71 1086.48 381.36 1086.45 381.04C1086.42 380.72 1086.38 380.26 1086.37 379.88C1086.36 379.5 1086.37 379.09 1086.37 378.69C1086.37 372.885 1088.33 367.249 1091.92 362.69C1091.48 362.13 1091.06 361.56 1090.68 360.97C1090.55 360.78 1090.43 360.6 1090.32 360.41C1090.21 360.22 1089.99 359.87 1089.84 359.6C1089.69 359.33 1089.47 358.96 1089.29 358.6C1089.27 358.572 1089.25 358.542 1089.24 358.51C1088.89 357.859 1088.58 357.192 1088.3 356.51C1088.2 356.27 1088.11 356.04 1088.02 355.81C1087.77 355.14 1087.55 354.47 1087.35 353.81C1087.12 353.024 1086.94 352.226 1086.8 351.42C1086.75 351.18 1086.71 350.93 1086.68 350.69C1086.67 350.67 1086.67 350.65 1086.68 350.63C1086.68 350.39 1086.6 350.16 1086.57 349.92C1086.5 349.35 1086.45 348.76 1086.42 348.17C1086.42 348 1086.42 347.84 1086.42 347.67C1086.42 347.35 1086.42 347.04 1086.42 346.73C1086.42 343.904 1086.88 341.097 1087.79 338.42L1107.48 345.03L1089.01 335.42C1089.84 333.744 1090.84 332.162 1092.01 330.7C1089.14 327.043 1087.3 322.683 1086.69 318.075C1086.08 313.467 1086.72 308.779 1088.53 304.5C1100.46 314.475 1111.54 325.43 1121.64 337.25C1126.87 343.363 1131.83 349.697 1136.51 356.25C1135.61 358.553 1134.37 360.712 1132.85 362.66L1132.77 362.76C1136.27 367.321 1138.15 372.921 1138.1 378.67V378.67Z" fill="#9FFD77"/>
<path opacity="0.03" d="M1086.24 346.58C1086.24 352.385 1088.2 358.021 1091.79 362.58C1088.78 366.405 1086.91 370.999 1086.39 375.837C1085.87 380.676 1086.72 385.563 1088.85 389.94C1090.97 394.317 1094.29 398.008 1098.41 400.59C1102.54 403.172 1107.3 404.542 1112.17 404.542C1117.04 404.542 1121.8 403.172 1125.93 400.59C1130.05 398.008 1133.37 394.317 1135.49 389.94C1137.62 385.563 1138.47 380.676 1137.95 375.837C1137.43 370.999 1135.56 366.405 1132.55 362.58C1136 358.2 1086.24 343.67 1086.24 346.58Z" fill="black"/>
<path opacity="0.3" d="M654.22 172.46C642.74 176.3 631.133 179.737 619.4 182.77C629.807 177.897 640.227 173.147 650.66 168.52C651.86 169.82 653 171.14 654.22 172.46Z" fill="#9FFD77"/>
<path opacity="0.3" d="M356.92 47.09C362.687 46.81 368.49 46.6733 374.33 46.68H374.86C367.74 51.37 360.58 55.87 353.37 60.09C351.56 61.09 349.75 62.19 347.93 63.2C346.557 63.98 345.183 64.7433 343.81 65.49C332.983 71.39 322.083 77.1267 311.11 82.7C302.777 86.9267 294.413 91.0533 286.02 95.08C275.053 100.333 264.02 105.397 252.92 110.27C226 122.06 198.84 132.67 171.4 141.78C194.567 127.78 217.75 114.113 240.95 100.78C257.383 91.3733 273.837 82.1067 290.31 72.98C292.103 71.98 293.893 70.98 295.68 69.98C307.72 63.3133 319.78 56.7333 331.86 50.24L334.65 48.73L356.92 47.09Z" fill="#9FFD77"/>
<path opacity="0.3" d="M716.62 269.34C719.427 275.647 722.057 282.047 724.51 288.54C722.99 289.27 721.51 289.98 719.95 290.7C684.78 307.11 649.23 321.91 613.4 334.77C635.22 320.55 657.047 306.577 678.88 292.85C691.453 284.937 704.033 277.1 716.62 269.34Z" fill="#9FFD77"/>
<path d="M728.83 758.67C728.65 734.09 725.27 709.86 715.48 687.93C713.788 684.079 711.892 680.32 709.8 676.67C706.747 671.371 703.307 666.304 699.51 661.51C696.56 657.774 693.412 654.199 690.08 650.8C681.841 642.447 672.767 634.961 663 628.46C646.75 617.46 628.72 608.6 610.65 601.14C588.217 591.866 565.161 584.18 541.65 578.14C538.863 577.433 536.067 576.74 533.26 576.06C532.39 575.84 531.52 575.64 530.64 575.43L527.81 574.78C526.19 574.4 524.59 574.05 522.97 573.69C518.143 572.63 513.303 571.63 508.45 570.69C500.043 569.09 491.603 567.703 483.13 566.53C464.81 564.01 446.37 562.44 427.92 561.09L419.03 560.45C411.11 559.89 403.19 559.33 395.27 558.77C387.34 558.17 379.42 557.54 371.51 556.77L369.6 556.67L365.89 556.3C362.61 555.96 359.32 555.62 356.04 555.24C349.7 554.52 343.367 553.69 337.04 552.75C330.007 551.703 322.987 550.47 315.98 549.05L314.83 548.81C312.97 548.43 311.11 548.02 309.26 547.61C308.16 547.37 307.07 547.12 305.98 546.86C299.26 545.28 292.593 543.493 285.98 541.5C276.747 538.716 267.677 535.421 258.81 531.63C255.857 530.37 252.937 529.037 250.05 527.63L248.87 527.04C232.431 519.205 217.234 508.992 203.77 496.73L202.64 495.73L200.24 493.43C198.83 492.06 197.45 490.65 196.09 489.24C194.73 487.83 193.46 486.49 192.16 485.09C184.61 476.92 177.55 468.26 170.33 459.75C164.08 452.4 157.72 445.17 150.82 438.43C149.55 437.19 148.26 435.99 146.95 434.8C140.983 429.309 134.63 424.252 127.94 419.67C127 419.02 126.05 418.39 125.1 417.77C121.353 415.29 117.51 412.957 113.57 410.77C109.72 408.63 105.78 406.63 101.78 404.77C96.4467 402.29 91.0234 400.06 85.51 398.08C76.1784 394.746 66.6165 392.096 56.9 390.15C42.8536 387.279 28.5465 385.878 14.21 385.97V385.97C9.99002 386.02 5.77002 386.19 1.58002 386.52L0.710016 386.6C0.780016 386.81 0.850016 387.02 0.900016 387.24C1.08795 387.353 1.28154 387.457 1.48002 387.55C1.40002 388.46 1.33002 389.37 1.26002 390.27C1.31267 391.074 1.25208 391.882 1.08002 392.67C0.360016 402.003 1.5896e-05 411.45 1.5896e-05 421.01C-0.0993842 481.425 14.5004 540.956 42.54 594.47L42.93 595.21C71.3314 649.058 112.389 695.201 162.57 729.67C202.47 757.149 247.354 776.569 294.7 786.84L302.97 788.53C314.397 790.743 326.007 792.41 337.8 793.53C349.8 794.69 361.977 795.273 374.33 795.28C391.5 795.286 408.65 794.116 425.66 791.78H727.42C728.34 780.82 728.91 769.67 728.83 758.67Z" fill="#3F3D56"/>
<path opacity="0.1" d="M574.05 126.14C570.497 125.467 566.824 125.868 563.5 127.29C561.509 128.177 559.354 128.635 557.175 128.635C554.996 128.635 552.841 128.177 550.85 127.29C548.495 126.258 545.944 125.749 543.373 125.799C540.802 125.849 538.273 126.457 535.96 127.58C534.637 128.276 533.165 128.643 531.67 128.65C525.67 128.65 520.61 122.57 519.57 114.55C520.772 113.672 521.791 112.568 522.57 111.3C526.1 105.6 531.57 101.94 537.74 101.94C543.91 101.94 549.31 105.55 552.85 111.19C553.902 112.891 555.376 114.291 557.127 115.257C558.879 116.222 560.85 116.719 562.85 116.7H563C567.86 116.67 572 120.52 574.05 126.14Z" fill="#9FFD77"/>
<path opacity="0.1" d="M594.1 117.95C592.27 124.24 587.85 128.69 582.7 128.69C581.223 128.685 579.769 128.325 578.46 127.64C576.164 126.536 573.658 125.939 571.112 125.889C568.565 125.839 566.037 126.337 563.7 127.35C561.715 128.228 559.57 128.684 557.4 128.69C555.755 128.686 554.121 128.419 552.56 127.9C552.3 127.83 552.03 127.72 551.77 127.63C551.51 127.54 551.28 127.44 551.04 127.33C550.982 127.294 550.918 127.27 550.85 127.26C550.596 127.139 550.336 127.032 550.07 126.94C549.82 126.84 549.57 126.76 549.32 126.67C544.973 125.271 540.254 125.608 536.15 127.61C534.831 128.309 533.363 128.68 531.87 128.69C531.057 128.69 530.249 128.572 529.47 128.34C529.36 128.34 529.26 128.28 529.15 128.26C529.04 128.24 528.91 128.19 528.79 128.14C524.14 126.47 520.56 121.08 519.79 114.39C519.669 113.425 519.609 112.453 519.61 111.48C519.61 101.97 525.11 94.27 531.91 94.27H532.24C534.234 94.3283 536.209 93.8598 537.965 92.9118C539.72 91.9637 541.195 90.5696 542.24 88.87C542.631 88.2236 543.061 87.6023 543.53 87.01C561.179 95.9696 578.088 106.315 594.1 117.95V117.95Z" fill="#9FFD77"/>
<path opacity="0.1" d="M71.05 263.49C69.9002 263.268 68.7311 263.161 67.56 263.17C65.1292 263.185 62.727 263.696 60.5 264.67C60.28 264.76 60.06 264.86 59.83 264.94C58.0389 265.64 56.133 265.999 54.21 266C52.6332 265.998 51.0657 265.758 49.56 265.29C49.3 265.2 49.03 265.11 48.77 265C48.51 264.89 48.15 264.77 47.85 264.63L47.07 264.31L46.32 264.05C42.4086 262.753 38.1691 262.848 34.32 264.32C37.6533 257.08 41.2133 249.973 45 243C46.9381 244.557 48.5954 246.434 49.9 248.55C50.9558 250.247 52.43 251.644 54.1811 252.607C55.9322 253.57 57.9016 254.067 59.9 254.05H60.05C60.6242 254.051 61.1969 254.108 61.76 254.22C62.8138 254.424 63.8271 254.799 64.76 255.33C67.7421 257.235 69.9665 260.121 71.05 263.49V263.49Z" fill="#9FFD77"/>
<path opacity="0.1" d="M92 248.83C92 258.33 86.49 266.03 79.7 266.03C78.2229 266.025 76.7687 265.665 75.46 264.98C73.0233 263.772 70.3291 263.174 67.61 263.24C65.2349 263.256 62.8864 263.742 60.7 264.67C60.39 264.8 60.09 264.93 59.77 265.04C58.054 265.691 56.2353 266.03 54.4 266.04C52.9596 266.04 51.5261 265.842 50.14 265.45L49.56 265.27C49.3 265.18 49.03 265.09 48.77 264.98C48.5078 264.891 48.2507 264.787 48 264.67L47.81 264.6C47.55 264.48 47.3 264.39 47.03 264.28L46.28 264.02L45.59 263.82C41.8162 262.768 37.8 262.996 34.17 264.47C34.1925 264.408 34.2192 264.348 34.25 264.29C37.5833 257.05 41.1433 249.943 44.93 242.97C48.49 236.39 52.2433 229.927 56.19 223.58C57.39 221.66 58.6 219.76 59.83 217.86C62.8796 219.052 65.5649 221.021 67.62 223.57L63.89 230.35L69.8 226.6C71.2147 228.641 73.2427 230.179 75.59 230.99L74.17 233.58L77.48 231.47C78.1406 231.582 78.8099 231.636 79.48 231.63H79.64C81.7856 231.654 83.8618 232.393 85.54 233.73L81.54 241.08L79.66 244.51L87.66 239.45L89.44 238.32C89.606 238.605 89.7562 238.899 89.89 239.2C91.3104 242.21 92.0318 245.502 92 248.83V248.83Z" fill="#9FFD77"/>
<path d="M988.81 596.35C1008.58 596.35 1024.6 575.375 1024.6 549.5C1024.6 523.625 1008.58 502.65 988.81 502.65C969.044 502.65 953.02 523.625 953.02 549.5C953.02 575.375 969.044 596.35 988.81 596.35Z" fill="#2F2E41"/>
<path d="M988.81 539.08C1008.58 539.08 1024.6 518.105 1024.6 492.23C1024.6 466.355 1008.58 445.38 988.81 445.38C969.044 445.38 953.02 466.355 953.02 492.23C953.02 518.105 969.044 539.08 988.81 539.08Z" fill="#2F2E41"/>
<path d="M988.81 481.82C1008.58 481.82 1024.6 460.845 1024.6 434.97C1024.6 409.095 1008.58 388.12 988.81 388.12C969.044 388.12 953.02 409.095 953.02 434.97C953.02 460.845 969.044 481.82 988.81 481.82Z" fill="#2F2E41"/>
<path d="M988.81 424.56C1008.58 424.56 1024.6 403.585 1024.6 377.71C1024.6 351.835 1008.58 330.86 988.81 330.86C969.044 330.86 953.02 351.835 953.02 377.71C953.02 403.585 969.044 424.56 988.81 424.56Z" fill="#2F2E41"/>
<path d="M988.81 367.29C1008.58 367.29 1024.6 346.315 1024.6 320.44C1024.6 294.565 1008.58 273.59 988.81 273.59C969.044 273.59 953.02 294.565 953.02 320.44C953.02 346.315 969.044 367.29 988.81 367.29Z" fill="#2F2E41"/>
<path d="M956.3 243.57C954.096 249.876 952.98 256.51 953 263.19C952.898 273.227 955.473 283.109 960.46 291.82C967 302.9 977.26 310.04 988.79 310.04C1000.32 310.04 1010.57 302.9 1017.12 291.82C1021.92 283.447 1024.48 273.98 1024.57 264.33C1014.4 259.722 1003.96 255.741 993.3 252.41C985.9 250.09 978.373 248.09 970.72 246.41L956.3 243.57Z" fill="#2F2E41"/>
<path d="M970.74 246.38C978.387 248.073 985.913 250.073 993.32 252.38C991.829 252.624 990.321 252.748 988.81 252.75C982.246 252.696 975.887 250.455 970.74 246.38V246.38Z" fill="#2F2E41"/>
<path d="M321.81 588.35C341.576 588.35 357.6 567.375 357.6 541.5C357.6 515.625 341.576 494.65 321.81 494.65C302.044 494.65 286.02 515.625 286.02 541.5C286.02 567.375 302.044 588.35 321.81 588.35Z" fill="#3F3D56"/>
<path d="M321.81 531.08C341.576 531.08 357.6 510.105 357.6 484.23C357.6 458.355 341.576 437.38 321.81 437.38C302.044 437.38 286.02 458.355 286.02 484.23C286.02 510.105 302.044 531.08 321.81 531.08Z" fill="#3F3D56"/>
<path d="M321.81 473.82C341.576 473.82 357.6 452.845 357.6 426.97C357.6 401.095 341.576 380.12 321.81 380.12C302.044 380.12 286.02 401.095 286.02 426.97C286.02 452.845 302.044 473.82 321.81 473.82Z" fill="#3F3D56"/>
<path d="M321.81 416.56C341.576 416.56 357.6 395.585 357.6 369.71C357.6 343.835 341.576 322.86 321.81 322.86C302.044 322.86 286.02 343.835 286.02 369.71C286.02 395.585 302.044 416.56 321.81 416.56Z" fill="#3F3D56"/>
<path d="M321.81 359.29C341.576 359.29 357.6 338.315 357.6 312.44C357.6 286.565 341.576 265.59 321.81 265.59C302.044 265.59 286.02 286.565 286.02 312.44C286.02 338.315 302.044 359.29 321.81 359.29Z" fill="#3F3D56"/>
<path d="M321.81 302.03C341.576 302.03 357.6 281.055 357.6 255.18C357.6 229.305 341.576 208.33 321.81 208.33C302.044 208.33 286.02 229.305 286.02 255.18C286.02 281.055 302.044 302.03 321.81 302.03Z" fill="#3F3D56"/>
<path d="M321.81 244.77C341.576 244.77 357.6 223.795 357.6 197.92C357.6 172.045 341.576 151.07 321.81 151.07C302.044 151.07 286.02 172.045 286.02 197.92C286.02 223.795 302.044 244.77 321.81 244.77Z" fill="#3F3D56"/>
<path d="M321.81 199.35C341.576 199.35 357.6 178.375 357.6 152.5C357.6 126.625 341.576 105.65 321.81 105.65C302.044 105.65 286.02 126.625 286.02 152.5C286.02 178.375 302.044 199.35 321.81 199.35Z" fill="#3F3D56"/>
<path d="M306.65 52.79C301.202 56.2575 296.681 61.0012 293.48 66.61C292.269 68.6528 291.209 70.7819 290.31 72.98C287.459 79.9985 286.002 87.5048 286.02 95.08V95.24C285.918 105.277 288.493 115.159 293.48 123.87C300.02 134.95 310.28 142.09 321.81 142.09C333.34 142.09 343.59 134.95 350.14 123.87C355.032 115.121 357.6 105.264 357.6 95.24C357.6 85.2161 355.032 75.3594 350.14 66.61C349.44 65.43 348.7 64.29 347.93 63.2C343.952 57.4121 338.365 52.9168 331.86 50.27C330.98 49.924 330.082 49.6269 329.17 49.38V49.38L306.65 52.79Z" fill="#3F3D56"/>
<path d="M329.16 49.38C330.98 49.16 332.807 48.9533 334.64 48.76L356.91 47.09C356.253 51.5501 355.061 55.9149 353.36 60.09C352.441 62.3379 351.361 64.5168 350.13 66.61C343.58 77.69 333.33 84.83 321.8 84.83C318.128 84.8285 314.493 84.1047 311.1 82.7C304.869 79.9997 299.522 75.6025 295.67 70.01C294.9 68.92 294.16 67.79 293.47 66.61C291.586 63.4094 290.057 60.0126 288.91 56.48C294.77 55.1 300.68 53.87 306.64 52.79L329.16 49.38Z" fill="#3F3D56"/>
<path d="M91.81 447.35C111.576 447.35 127.6 426.375 127.6 400.5C127.6 374.625 111.576 353.65 91.81 353.65C72.0437 353.65 56.02 374.625 56.02 400.5C56.02 426.375 72.0437 447.35 91.81 447.35Z" fill="#3F3D56"/>
<path d="M91.81 390.08C111.576 390.08 127.6 369.105 127.6 343.23C127.6 317.355 111.576 296.38 91.81 296.38C72.0437 296.38 56.02 317.355 56.02 343.23C56.02 369.105 72.0437 390.08 91.81 390.08Z" fill="#3F3D56"/>
<path d="M91.81 332.82C111.576 332.82 127.6 311.845 127.6 285.97C127.6 260.095 111.576 239.12 91.81 239.12C72.0437 239.12 56.02 260.095 56.02 285.97C56.02 311.845 72.0437 332.82 91.81 332.82Z" fill="#3F3D56"/>
<path d="M127.6 228.67C127.701 238.707 125.126 248.589 120.14 257.3C113.59 268.38 103.34 275.53 91.81 275.53C82.48 275.53 73.99 270.85 67.61 263.2V263.13C66.0932 261.301 64.7286 259.351 63.53 257.3C62.92 256.3 62.35 255.23 61.81 254.15C57.9484 246.213 55.9607 237.496 56 228.67C56 226.937 56.07 225.227 56.21 223.54C57.41 221.62 58.62 219.72 59.85 217.82C62.4 213.82 65.04 209.97 67.75 206.11C73.4367 197.99 79.4367 190.113 85.75 182.48C87.7191 182.035 89.7314 181.811 91.75 181.81C103.28 181.81 113.53 188.95 120.08 200.04C125.085 208.746 127.681 218.628 127.6 228.67V228.67Z" fill="#3F3D56"/>
<path d="M127.6 171.45C127.697 181.486 125.122 191.367 120.14 200.08C113.59 211.16 103.33 218.29 91.81 218.29C82.55 218.29 74.12 213.7 67.81 206.15C73.4967 198.03 79.4967 190.153 85.81 182.52C96.7936 169.226 108.689 156.712 121.41 145.07C125.553 153.242 127.675 162.288 127.6 171.45Z" fill="#3F3D56"/>
<path d="M303 788.54C314.427 790.753 326.037 792.42 337.83 793.54C349.83 794.713 362.007 795.3 374.36 795.3C391.53 795.302 408.68 794.13 425.69 791.79H866.05C867.24 791.98 868.43 792.17 869.63 792.34C931.139 801.368 993.9 789.531 1047.89 758.717C1101.89 727.903 1144.01 679.89 1167.52 622.34C1159.71 617.27 1151.85 612.34 1143.9 607.51C1135.95 602.68 1127.82 598.11 1119.5 593.76C1118.25 593.09 1116.99 592.44 1115.72 591.76C1100.38 583.825 1084.45 577.101 1068.07 571.65C1060.97 569.32 1053.81 567.3 1046.61 565.65C1043.2 564.857 1039.79 564.15 1036.36 563.53C1032.05 562.737 1027.72 562.09 1023.36 561.59C1011.94 560.219 1000.41 559.971 988.94 560.85C986.833 561.01 984.72 561.22 982.6 561.48C978.527 561.953 974.463 562.593 970.41 563.4C965.41 564.4 960.49 565.627 955.65 567.08C913.95 579.47 877.83 607.16 840.43 630.26L839 631.15C800.234 654.893 758.766 673.912 715.48 687.8C707.407 690.4 699.28 692.82 691.1 695.06C681.767 697.62 672.4 699.953 663 702.06C661.21 702.46 659.41 702.85 657.62 703.22C650.427 704.76 643.207 706.153 635.96 707.4C591.789 715.082 546.874 717.606 502.12 714.92C495.453 714.52 488.77 713.997 482.07 713.35C473.197 712.497 464.35 711.427 455.53 710.14L453.71 709.88C446.08 708.75 438.45 707.46 430.83 706.17C421.69 704.63 412.55 703.11 403.4 701.87C400.3 701.44 397.21 701.06 394.11 700.71C384.369 699.575 374.567 699.034 364.76 699.09C363.21 699.09 361.66 699.15 360.1 699.22C343.37 699.87 326.4 703.12 311.26 709.83L310.4 710.21C302.397 713.766 294.945 718.45 288.27 724.12C286.363 725.747 284.523 727.473 282.75 729.3C269.83 742.63 262.1 758.98 255.75 776.08C268.544 780.358 281.564 783.93 294.75 786.78L303 788.54Z" fill="#2F2E41"/>
<path opacity="0.6" d="M389 251.62C390.105 251.62 391 250.725 391 249.62C391 248.515 390.105 247.62 389 247.62C387.895 247.62 387 248.515 387 249.62C387 250.725 387.895 251.62 389 251.62Z" fill="white"/>
<path opacity="0.6" d="M186 253.62C187.105 253.62 188 252.725 188 251.62C188 250.515 187.105 249.62 186 249.62C184.895 249.62 184 250.515 184 251.62C184 252.725 184.895 253.62 186 253.62Z" fill="white"/>
<path opacity="0.6" d="M615 357.62C616.105 357.62 617 356.725 617 355.62C617 354.515 616.105 353.62 615 353.62C613.895 353.62 613 354.515 613 355.62C613 356.725 613.895 357.62 615 357.62Z" fill="white"/>
<path opacity="0.6" d="M767 287.62C768.105 287.62 769 286.725 769 285.62C769 284.515 768.105 283.62 767 283.62C765.895 283.62 765 284.515 765 285.62C765 286.725 765.895 287.62 767 287.62Z" fill="white"/>
<path d="M303 788.54C305.394 779.471 306.601 770.13 306.59 760.75C306.59 758.33 306.5 755.93 306.35 753.55C309.451 743.283 311.018 732.615 311 721.89C310.999 718.012 310.796 714.137 310.39 710.28C310.39 710.07 310.34 709.85 310.32 709.64C308.891 696.822 305.165 684.367 299.32 672.87L254 686.99L236.45 692.45L249.68 684.67L291.68 659.99C282.413 646.6 270.257 635.462 256.109 627.398C241.962 619.334 226.184 614.55 209.94 613.4C207.357 609.479 204.525 605.727 201.46 602.17L166.57 613.02L111 630.28L158.68 602.28L185.1 586.67C164.456 570.852 138.827 562.955 112.861 564.409C86.894 565.864 62.308 576.575 43.56 594.6V594.6L42.94 595.21C71.3391 649.071 112.396 695.227 162.58 729.71C202.48 757.177 247.36 776.587 294.7 786.85L303 788.54Z" fill="#2F2E41"/>
<path d="M510.19 791.83H426.38C436.18 775.7 451.31 765.35 468.29 765.35C485.27 765.35 500.4 775.67 510.19 791.83Z" fill="#3F3D56"/>
<path opacity="0.1" d="M510.19 791.83H426.38C436.18 775.7 451.31 765.35 468.29 765.35C485.27 765.35 500.4 775.67 510.19 791.83Z" fill="black"/>
<path d="M303 788.54C314.427 790.753 326.037 792.42 337.83 793.54C349.83 794.713 362.007 795.3 374.36 795.3C391.53 795.302 408.68 794.13 425.69 791.79H620.38C627.736 776.83 631.561 760.381 631.56 743.71C631.56 741.29 631.47 738.89 631.32 736.51C634.19 727.087 635.764 717.317 636 707.47C636 706.61 636 705.75 636 704.89C636.021 687.868 632.029 671.081 624.35 655.89L561.35 675.47L616.61 642.98C607.343 629.59 595.187 618.452 581.039 610.388C566.892 602.324 551.114 597.54 534.87 596.39C533.537 594.33 532.113 592.33 530.6 590.39C530.19 589.85 529.77 589.31 529.35 588.78C528.39 587.56 527.39 586.363 526.35 585.19L523.81 585.98L436 613.28L508.38 570.67L510.1 569.67C498.341 560.672 484.87 554.169 470.511 550.558C456.151 546.948 441.206 546.305 426.59 548.67C424.93 548.92 423.28 549.23 421.64 549.58C406.989 552.637 393.131 558.698 380.94 567.38C360.365 582.002 345.503 603.311 338.89 627.67L361.89 654.12L370.23 663.73L388.87 685.19L403.41 701.92L416.36 716.83L394.1 700.78L362.85 678.21L332.21 656.08C321.288 663.827 311.884 673.519 304.47 684.67C296.49 696.637 290.979 710.076 288.26 724.2C284.218 745.266 286.457 767.056 294.7 786.86L303 788.54Z" fill="#2F2E41"/>
<path d="M676.08 755.15C682.53 744.44 676.43 730.67 669.15 720.52C661.87 710.37 652.93 699.73 653.71 687.27C654.84 669.35 674.37 659.65 690.02 650.86C701.632 644.33 712.43 636.448 722.19 627.38C726.1 623.74 729.9 619.83 732.31 615.07C735.78 608.21 736.07 600.23 736.23 592.53C736.743 566.917 736.667 541.297 736 515.67L676.08 755.15Z" fill="#2F2E41"/>
<path d="M1091.84 471.8C1095.61 480.32 1099.3 488.87 1102.93 497.45C1109.27 512.477 1115.39 527.593 1121.28 542.8C1124.06 549.97 1126.83 557.46 1126.28 565.13C1125.86 570.46 1123.84 575.52 1121.6 580.37L1121.39 580.83C1119.65 584.57 1117.78 588.237 1115.77 591.83C1112.42 597.847 1108.7 603.651 1104.64 609.21C1103.39 610.93 1102.11 612.623 1100.79 614.29C1095.65 620.8 1089.79 627.81 1085.6 635.14C1082.22 641 1079.88 647.07 1079.76 653.26C1079.69 656.155 1080.14 659.039 1081.07 661.78C1085.07 673.61 1097.41 680.03 1108.01 686.65C1113.05 689.696 1117.59 693.505 1121.47 697.94" stroke="#2F2E41" stroke-width="4" stroke-miterlimit="10"/>
<path d="M1092.72 499.38C1108.18 499.38 1120.72 486.844 1120.72 471.38C1120.72 455.916 1108.18 443.38 1092.72 443.38C1077.26 443.38 1064.72 455.916 1064.72 471.38C1064.72 486.844 1077.26 499.38 1092.72 499.38Z" fill="#2F2E41"/>
<path d="M1142.21 546.05C1157.67 546.05 1170.21 533.514 1170.21 518.05C1170.21 502.586 1157.67 490.05 1142.21 490.05C1126.75 490.05 1114.21 502.586 1114.21 518.05C1114.21 533.514 1126.75 546.05 1142.21 546.05Z" fill="#2F2E41"/>
<path d="M1093.46 611.54C1108.92 611.54 1121.46 599.004 1121.46 583.54C1121.46 568.076 1108.92 555.54 1093.46 555.54C1078 555.54 1065.46 568.076 1065.46 583.54C1065.46 599.004 1078 611.54 1093.46 611.54Z" fill="#2F2E41"/>
<path d="M1107.7 680.29C1123.16 680.29 1135.7 667.754 1135.7 652.29C1135.7 636.826 1123.16 624.29 1107.7 624.29C1092.24 624.29 1079.7 636.826 1079.7 652.29C1079.7 667.754 1092.24 680.29 1107.7 680.29Z" fill="#2F2E41"/>
<path d="M860.55 660.06C862.43 647.71 851.55 637.3 840.96 630.68C830.37 624.06 818 617.67 814 605.8C808.23 588.8 822.59 572.41 833.72 558.32C841.978 547.85 848.964 536.437 854.53 524.32C856.77 519.47 858.79 514.41 859.21 509.09C859.81 501.42 857.04 493.93 854.21 486.76C844.963 462.86 835.15 439.193 824.77 415.76" stroke="#2F2E41" stroke-width="4" stroke-miterlimit="10"/>
<path d="M825.72 443.38C841.184 443.38 853.72 430.844 853.72 415.38C853.72 399.916 841.184 387.38 825.72 387.38C810.256 387.38 797.72 399.916 797.72 415.38C797.72 430.844 810.256 443.38 825.72 443.38Z" fill="#2F2E41"/>
<path d="M875.21 490.05C890.674 490.05 903.21 477.514 903.21 462.05C903.21 446.586 890.674 434.05 875.21 434.05C859.746 434.05 847.21 446.586 847.21 462.05C847.21 477.514 859.746 490.05 875.21 490.05Z" fill="#2F2E41"/>
<path d="M826.46 555.54C841.924 555.54 854.46 543.004 854.46 527.54C854.46 512.076 841.924 499.54 826.46 499.54C810.996 499.54 798.46 512.076 798.46 527.54C798.46 543.004 810.996 555.54 826.46 555.54Z" fill="#2F2E41"/>
<path d="M840.7 624.29C856.164 624.29 868.7 611.754 868.7 596.29C868.7 580.826 856.164 568.29 840.7 568.29C825.236 568.29 812.7 580.826 812.7 596.29C812.7 611.754 825.236 624.29 840.7 624.29Z" fill="#2F2E41"/>
<path d="M370.86 565.84C373.78 561.45 371.48 555.53 368.61 551.11C365.74 546.69 362.17 542.05 362.74 536.81C363.55 529.28 371.97 525.57 378.74 522.16C383.757 519.635 388.456 516.523 392.74 512.89C394.525 511.501 396.051 509.808 397.25 507.89C398.84 505.06 399.11 501.7 399.33 498.47C400.05 487.683 400.51 476.887 400.71 466.08" stroke="#3F3D56" stroke-width="4" stroke-miterlimit="10"/>
<path d="M401.12 477.89C407.642 477.89 412.93 472.602 412.93 466.08C412.93 459.558 407.642 454.27 401.12 454.27C394.598 454.27 389.31 459.558 389.31 466.08C389.31 472.602 394.598 477.89 401.12 477.89Z" fill="#3F3D56"/>
<path d="M411.73 504.55C418.252 504.55 423.54 499.262 423.54 492.74C423.54 486.218 418.252 480.93 411.73 480.93C405.208 480.93 399.92 486.218 399.92 492.74C399.92 499.262 405.208 504.55 411.73 504.55Z" fill="#3F3D56"/>
<path d="M381.43 520.91C387.952 520.91 393.24 515.622 393.24 509.1C393.24 502.578 387.952 497.29 381.43 497.29C374.908 497.29 369.62 502.578 369.62 509.1C369.62 515.622 374.908 520.91 381.43 520.91Z" fill="#3F3D56"/>
<path d="M374.63 549.73C381.152 549.73 386.44 544.442 386.44 537.92C386.44 531.398 381.152 526.11 374.63 526.11C368.108 526.11 362.82 531.398 362.82 537.92C362.82 544.442 368.108 549.73 374.63 549.73Z" fill="#3F3D56"/>
<path d="M918 368.39C916.47 359.9 917.23 350.75 913.34 343.08C912.957 342.182 912.347 341.4 911.57 340.81C910.598 340.289 909.502 340.04 908.4 340.09C904.893 339.937 901.377 339.903 897.85 339.99C896.85 339.99 895.71 340.14 895.2 340.99C895.145 341.086 895.098 341.186 895.06 341.29C891.06 336.79 887.98 331.19 883.64 327.03C884.26 326.83 884.88 326.63 885.51 326.46C885.45 326.04 885.37 325.62 885.28 325.21L885.18 324.84C885.11 324.55 885.03 324.27 884.95 323.99C884.87 323.71 884.85 323.72 884.81 323.58C884.77 323.44 884.64 323.05 884.54 322.79L884.37 322.38C884.27 322.12 884.17 321.86 884.05 321.61C883.93 321.36 883.94 321.36 883.88 321.23L883.5 320.43C883.5 320.32 883.39 320.22 883.34 320.11C883.19 319.82 883.05 319.54 882.9 319.27L882.75 319L882.24 318.1L882.14 317.93C881.94 317.59 881.74 317.25 881.53 316.93C879.83 314.15 877.95 311.43 876.58 308.6C874.15 303.6 873.35 297.96 871.74 292.6C870.13 287.24 867.33 281.86 862.44 279.33C860.12 278.13 856.99 277.08 856.78 274.44C856.764 273.595 856.939 272.758 857.29 271.99C857.956 270.286 858.769 268.643 859.72 267.08C860.06 266.5 860.44 265.93 860.82 265.38C860.91 265.24 861.01 265.11 861.11 264.97C861.41 264.55 861.72 264.15 862.03 263.75L862.42 263.26C862.74 262.88 863.06 262.51 863.42 262.15L863.81 261.71C864.27 261.22 864.74 260.71 865.23 260.28C865.669 259.931 866.013 259.477 866.23 258.96C866.36 258.447 866.387 257.913 866.31 257.39C866.07 253.14 868.31 249.17 870.8 245.75C873.29 242.33 876.18 239.08 877.59 235.08C877.75 234.62 877.89 234.15 878.01 233.69C878.01 233.53 878.08 233.38 878.11 233.22C878.14 233.06 878.25 232.59 878.31 232.28C878.37 231.97 878.36 231.91 878.39 231.73C878.42 231.55 878.47 231.14 878.5 230.85C878.53 230.56 878.5 230.46 878.5 230.27C878.5 230.08 878.5 229.69 878.5 229.4C878.5 229.11 878.5 229.02 878.5 228.82C878.5 228.62 878.5 228.24 878.5 227.94C878.5 227.64 878.5 227.57 878.5 227.38C878.5 227.19 878.5 226.75 878.42 226.44C878.34 226.13 878.42 226.1 878.37 225.93C878.33 225.57 878.28 225.21 878.22 224.85C878.22 224.73 878.22 224.61 878.22 224.49C878.14 223.99 878.05 223.49 877.95 223.01C877.239 219.858 876.327 216.755 875.22 213.72C874.629 211.85 873.872 210.036 872.96 208.3C873.51 208.2 874.06 208.07 874.62 207.92C874.27 207.28 873.72 206.53 873.41 205.81C876.7 200.65 879.57 195.25 881.01 189.32C881.9 185.124 882.422 180.857 882.57 176.57C883.4 163.7 884.22 150.76 883.16 137.91C883.16 137.74 883.16 137.57 883.16 137.4C883.552 134.639 883.579 131.838 883.24 129.07C882.71 123.69 881.45 118.26 878.57 113.71C875.69 109.16 870.92 105.15 865.63 104.61C864.761 105.597 863.792 106.491 862.74 107.28C861.153 105.881 859.989 104.066 859.38 102.04C865.559 101.07 871.248 98.099 875.575 93.5827C879.902 89.0663 882.626 83.2546 883.33 77.04C883.39 76.57 883.43 76.1 883.46 75.63C883.46 75.43 883.46 75.24 883.46 75.05C883.46 74.86 883.46 74.51 883.46 74.24V73.49C883.46 73.29 883.46 73.09 883.46 72.88C883.46 72.67 883.46 72.31 883.46 72.02V71.55C883.46 71.23 883.46 70.91 883.38 70.55C883.38 70.44 883.38 70.33 883.38 70.21C883.38 69.86 883.3 69.52 883.24 69.21V68.99C883.18 68.61 883.11 68.24 883.04 67.87C883.035 67.8301 883.035 67.7899 883.04 67.75C882.96 67.35 882.87 66.96 882.77 66.56C882.099 63.8558 881.041 61.2625 879.63 58.86C880.789 56.2305 881.551 53.4434 881.89 50.59C881.95 50.07 882 49.59 882.03 49.05C882.03 48.72 882.03 48.39 882.03 48.05C882.03 47.88 882.03 47.72 882.03 47.56C882.03 47.13 882.03 46.71 882.03 46.28V46.15C881.81 39.0088 878.961 32.2003 874.03 27.03C874.599 26.0573 875.075 25.0327 875.45 23.97V23.97C875.56 23.66 875.66 23.35 875.76 23.03C875.85 22.73 875.93 22.43 876 22.12C876 22.12 876 22.12 876 22.04C876.07 21.76 876.12 21.48 876.18 21.19V21.04C876.24 20.71 876.29 20.38 876.33 20.04C876.37 19.7 876.4 19.34 876.42 19.04C876.42 18.93 876.42 18.82 876.42 18.71C876.42 18.6 876.42 18.23 876.42 17.99V17.63V16.91C876.42 16.8 876.42 16.7 876.42 16.59C876.17 12.1735 874.265 8.0134 871.084 4.93872C867.904 1.86405 863.682 0.10055 859.259 -0.00036191C854.837 -0.101273 850.539 1.46781 847.222 4.39422C843.904 7.32063 841.811 11.3895 841.36 15.79C841.142 17.5945 841.196 19.4215 841.52 21.21C837.181 23.3085 833.441 26.4662 830.645 30.3916C827.848 34.317 826.086 38.8837 825.52 43.67C825.329 45.2725 825.273 46.8881 825.35 48.5C822.774 52.5154 821.228 57.1043 820.85 61.86V61.86V62.4C820.85 63 820.78 63.6 820.78 64.21C820.768 68.6145 821.764 72.9634 823.692 76.9238C825.619 80.8843 828.427 84.3514 831.9 87.06C833.351 89.3949 835.264 91.4093 837.52 92.98C837.922 94.193 838.223 95.4372 838.42 96.7C838.59 100.1 837.58 103.7 835.01 105.93C834.36 106.47 833.64 106.93 833.01 107.44C832.33 107.257 831.611 107.274 830.94 107.49C823.27 109.9 815.94 114.67 812.39 121.99C811.607 123.648 810.99 125.38 810.55 127.16C810.41 127.37 810.26 127.58 810.13 127.8C805.442 135.115 802.068 143.193 800.16 151.67C799.16 156 798.59 160.5 796.57 164.44C796.083 165.256 795.691 166.125 795.4 167.03C795.229 168.42 795.169 169.821 795.22 171.22C795.01 173.75 793.54 175.99 793.05 178.48C792.75 179.96 792.81 181.48 792.55 182.98C792.09 185.59 790.68 187.91 789.78 190.39C788.19 194.76 788.21 199.56 787.04 204.07C786.896 204.8 786.58 205.485 786.12 206.07C785.32 206.96 784.06 207.17 783.02 207.74C782.202 208.253 781.501 208.933 780.965 209.736C780.429 210.54 780.069 211.448 779.91 212.4C779.607 214.316 779.573 216.265 779.81 218.19L780.39 225.74C777.57 226.58 774.76 227.44 771.95 228.3L758.08 232.54C754.08 233.76 750.02 235.02 746.57 237.4C743.388 239.609 740.879 242.654 739.32 246.2C737.74 249.81 737.19 253.78 736.63 257.7C735.04 268.7 733.11 279.7 729.5 290.11C729.22 290.92 728.92 291.73 728.62 292.54C728.32 293.34 728 294.13 727.68 294.92L727.47 295.4C727.21 296.04 726.95 296.67 726.67 297.29C726.31 298.09 725.95 298.89 725.56 299.67L758 310.54C758 310.93 758.08 311.34 758.14 311.81C759.26 319.81 758.72 327.87 759.76 335.81C759.892 337.14 760.195 338.447 760.66 339.7C759.838 340.416 759.247 341.359 758.96 342.41C758.593 344.109 758.535 345.86 758.79 347.58C759.163 351.647 759.53 355.723 759.89 359.81C760.087 361.299 760.103 362.807 759.94 364.3C759.53 366.99 758 369.35 757.14 371.93C756.28 374.51 756.34 377.8 758.47 379.44C759.212 379.945 760.071 380.252 760.965 380.332C761.86 380.413 762.759 380.264 763.58 379.9C765.22 379.145 766.667 378.027 767.81 376.63C774.35 369.39 777.27 359.58 782.36 351.21C783.659 349.275 784.818 347.25 785.83 345.15C786.53 343.53 786.97 341.81 787.54 340.15C788.313 337.908 789.249 335.726 790.34 333.62C790.94 332.42 793.26 329.52 792.77 328.17C791.94 325.88 783.03 323.84 780.83 323.17C779.41 322.71 777.83 322.3 776.47 322.97C776.258 323.075 776.06 323.206 775.88 323.36C775.63 320.08 775.37 316.8 775.12 313.53C776.44 313.41 777.75 313.24 779.05 313.03C779 311.18 778.96 309.32 778.92 307.45L778.8 302.32C778.71 298.17 778.62 294.01 778.51 289.91C778.487 287.503 778.333 285.1 778.05 282.71C777.54 279.05 776.43 275.49 776.05 271.82C776.584 271.391 777.216 271.103 777.89 270.98V270.98C778.931 270.812 779.989 270.775 781.04 270.87H781.87C786.45 271.01 790.93 269.39 795.01 267.25C799.09 265.11 802.88 262.45 806.94 260.25C807.44 259.98 807.94 259.72 808.47 259.46L809.03 259.18L809.98 258.71L810.77 258.33L810.95 258.24C813.32 257.11 815.71 256.01 817.95 254.78C818.102 255.03 818.269 255.27 818.45 255.5C819.004 256.269 819.779 256.853 820.671 257.174C821.564 257.496 822.532 257.54 823.45 257.3C820.65 264.07 817.35 270.62 816.51 277.94C815.29 288.5 819.51 298.84 823.66 308.6L836.89 339.79C838.35 343.24 840.3 347.11 843.89 347.93C846.13 348.44 848.45 347.59 850.53 346.6C856.53 343.72 862.03 339.6 867.53 335.72C867.608 335.771 867.681 335.828 867.75 335.89C872.75 339.84 875.9 345.37 879.36 350.64L888.64 365.87C888.567 366.636 888.694 367.408 889.01 368.11C889.686 369.369 890.564 370.507 891.61 371.48C897.493 377.822 901.372 385.761 902.76 394.3C903.1 396.46 903.33 398.76 904.6 400.53C907.09 403.98 912.38 403.76 916.12 401.79C917.265 401.252 918.256 400.433 919 399.41C919.628 398.297 920.026 397.07 920.17 395.8C920.844 392.653 921.215 389.448 921.28 386.23C921.31 380.18 919.06 374.37 918 368.39ZM864.8 88.17C865.44 87.74 866.06 87.27 866.67 86.78C865.399 90.5595 863.356 94.0332 860.67 96.98V96.98C860.04 97.67 859.37 98.32 858.67 98.98C858.67 98.82 858.67 98.66 858.67 98.51C858.59 96.98 858.67 95.37 858.72 93.79C861.113 92.3561 863.183 90.4427 864.8 88.17V88.17ZM812.28 205.52C812.28 205.43 812.35 205.33 812.39 205.23C812.911 205.622 813.367 206.095 813.74 206.63C813.381 207.421 813.212 208.286 813.247 209.154C813.282 210.022 813.519 210.87 813.94 211.63C814.72 212.95 816.12 214.17 815.81 215.63C815.5 217.09 813.61 217.72 812.06 217.97C810.06 218.29 808.06 218.67 806.06 219.08C806.06 219.08 806.06 219.01 806.06 218.97C806.103 217.294 805.874 215.622 805.38 214.02C808.8 212.61 810.94 209.07 812.28 205.52Z" fill="url(#paint1_linear)"/>
<path d="M874.18 32.38C875.52 30.1217 876.339 27.5929 876.577 24.9779C876.816 22.3629 876.468 19.7276 875.559 17.2641C874.65 14.8007 873.203 12.571 871.323 10.7378C869.443 8.90451 867.178 7.51381 864.692 6.66704C862.207 5.82028 859.563 5.53878 856.955 5.84306C854.347 6.14734 851.84 7.02973 849.616 8.42593C847.392 9.82213 845.507 11.6969 844.1 13.9137C842.693 16.1305 841.797 18.6334 841.48 21.24C841.266 23.018 841.32 24.818 841.64 26.58C837.326 28.6368 833.602 31.7503 830.814 35.6315C828.025 39.5126 826.263 44.0355 825.69 48.78C825.504 50.3594 825.447 51.9513 825.52 53.54C823.112 57.2407 821.602 61.4522 821.108 65.8395C820.614 70.2268 821.151 74.6688 822.677 78.812C824.202 82.9552 826.673 86.6852 829.893 89.7054C833.114 92.7255 836.994 94.9523 841.227 96.2086C845.459 97.465 849.927 97.7162 854.273 96.9422C858.62 96.1683 862.726 94.3905 866.265 91.7505C869.803 89.1104 872.677 85.6809 874.657 81.7348C876.637 77.7887 877.669 73.435 877.67 69.02C877.67 68.5733 877.67 68.1233 877.67 67.67C881.186 62.2689 882.759 55.832 882.13 49.4181C881.501 43.0042 878.708 36.9954 874.21 32.38H874.18Z" fill="#2F2E41"/>
<g opacity="0.1">
<path opacity="0.1" d="M841.41 22.1L841.64 21.98C841.64 21.67 841.55 21.36 841.51 21.05V21.24C841.44 21.53 841.43 21.81 841.41 22.1Z" fill="black"/>
<path opacity="0.1" d="M882 50.98C881.486 55.294 879.984 59.4313 877.61 63.07C877.61 63.5167 877.61 63.9666 877.61 64.42C877.5 71.6741 874.616 78.6106 869.549 83.8034C864.483 88.9962 857.619 92.0506 850.37 92.3388C843.121 92.6269 836.036 90.1268 830.574 85.3525C825.111 80.5782 821.685 73.8926 821 66.67C820.94 67.43 820.9 68.2 820.9 68.98C820.829 72.7511 821.511 76.4984 822.905 80.003C824.299 83.5076 826.378 86.6992 829.02 89.3911C831.662 92.0831 834.814 94.2214 838.292 95.6811C841.769 97.1409 845.503 97.8927 849.275 97.8927C853.047 97.8927 856.781 97.1409 860.258 95.6811C863.736 94.2214 866.888 92.0831 869.53 89.3911C872.172 86.6992 874.251 83.5076 875.645 80.003C877.039 76.4984 877.721 72.7511 877.65 68.98C877.65 68.5333 877.65 68.0833 877.65 67.63C880.003 64.0026 881.491 59.8834 882 55.59C882.233 53.6887 882.266 51.7683 882.1 49.86C882.1 50.23 882.08 50.61 882 50.98Z" fill="black"/>
<path opacity="0.1" d="M876.51 21.03C876.2 23.4149 875.407 25.7115 874.18 27.78C874.67 28.29 875.18 28.78 875.6 29.37C876.056 28.1127 876.368 26.8077 876.53 25.48C876.708 24.0016 876.702 22.5067 876.51 21.03V21.03Z" fill="black"/>
</g>
<path d="M759.84 336.8C759.973 338.418 760.41 339.995 761.13 341.45C761.494 342.174 762.025 342.8 762.678 343.278C763.332 343.757 764.09 344.072 764.89 344.2C766.36 344.207 767.801 343.79 769.04 343C771.56 341.68 774.19 340.15 775.5 337.62C776.81 335.09 776.6 332.25 776.38 329.5L774.69 307.87C770.6 307.75 766.49 307.76 762.41 307.98C758.33 308.2 757.66 309.15 758.22 313.1C759.34 320.96 758.79 328.94 759.84 336.8Z" fill="#FBBEBE"/>
<path d="M879.73 351.43L889.45 367.14C889.873 368.054 890.633 368.771 891.57 369.14C892.258 369.229 892.956 369.103 893.57 368.78C896.81 367.37 899.29 364.67 901.68 362.06C903.29 360.28 904.96 358.41 905.57 356.06C905.883 354.8 905.87 353.481 905.53 352.228C905.191 350.975 904.537 349.829 903.63 348.9C902.489 347.916 901.261 347.039 899.96 346.28C892.27 341.1 888.8 331.28 881.22 325.92C880.78 325.558 880.246 325.329 879.68 325.26C879.115 325.293 878.57 325.476 878.1 325.79L867.73 331.48C863.24 333.93 864.66 334.22 868.07 336.87C873.13 340.78 876.26 346.23 879.73 351.43Z" fill="#FBBEBE"/>
<path d="M780.94 324.29C779.52 323.84 777.94 323.44 776.58 324.09C775.952 324.474 775.42 324.998 775.026 325.62C774.633 326.243 774.388 326.948 774.31 327.68C774.04 329.12 774.07 330.62 773.67 332.03C772.99 334.42 771.18 336.28 769.43 338.03C768.718 338.871 767.797 339.509 766.76 339.88C765.36 340.24 763.87 339.59 762.44 339.88C761.61 340.091 760.853 340.526 760.253 341.138C759.654 341.75 759.234 342.515 759.04 343.35C758.663 345.021 758.605 346.748 758.87 348.44L759.97 360.5C760.15 361.971 760.15 363.459 759.97 364.93C759.56 367.58 758.02 369.93 757.17 372.45C756.32 374.97 756.36 378.24 758.5 379.86C759.248 380.357 760.108 380.659 761.003 380.737C761.897 380.816 762.797 380.669 763.62 380.31C765.257 379.568 766.706 378.467 767.86 377.09C774.41 369.95 777.33 360.27 782.42 352.03C783.724 350.115 784.89 348.11 785.91 346.03C786.6 344.42 787.05 342.73 787.61 341.03C788.394 338.823 789.333 336.674 790.42 334.6C791.03 333.41 793.34 330.6 792.86 329.22C792.08 326.99 783.15 324.99 780.94 324.29Z" fill="#2F2E41"/>
<path d="M899 357.55C897.531 360.314 895.074 362.424 892.12 363.46C891.27 363.695 890.479 364.108 889.8 364.67C889.346 365.223 889.065 365.897 888.993 366.608C888.92 367.32 889.058 368.037 889.39 368.67C890.073 369.906 890.955 371.021 892 371.97C897.88 378.191 901.769 386.025 903.17 394.47C903.51 396.6 903.74 398.86 905.02 400.61C907.51 404.01 912.81 403.79 916.55 401.85C917.695 401.326 918.69 400.521 919.44 399.51C920.066 398.414 920.464 397.203 920.61 395.95C921.283 392.846 921.655 389.685 921.72 386.51C921.65 380.51 919.4 374.78 918.32 368.88C916.79 360.51 917.56 351.49 913.66 343.93C913.273 343.04 912.659 342.268 911.88 341.69C910.905 341.176 909.811 340.931 908.71 340.98C905.19 340.83 901.66 340.8 898.14 340.89C897.14 340.89 895.99 341.03 895.48 341.89C894.97 342.75 895.42 343.89 895.88 344.76C898.06 349.02 901.6 352.43 899 357.55Z" fill="#2F2E41"/>
<path d="M815.37 207.51C814.385 208.321 813.717 209.454 813.485 210.709C813.252 211.963 813.47 213.26 814.1 214.37C814.88 215.67 816.28 216.87 815.97 218.37C815.66 219.87 813.76 220.43 812.21 220.68C798.56 222.85 785.27 226.85 772.03 230.83L758.14 235.01C754.14 236.22 750.06 237.46 746.6 239.81C743.424 241.972 740.911 244.974 739.34 248.48C737.76 252.04 737.21 255.96 736.64 259.81C734.56 274.01 731.9 288.34 725.56 301.21L759.25 312.21C762.512 313.416 765.895 314.268 769.34 314.75C772.623 315.023 775.928 314.865 779.17 314.28C778.96 306.76 778.83 299.01 778.62 291.49C778.602 289.113 778.449 286.739 778.16 284.38C777.66 280.78 776.54 277.27 776.16 273.65C777.71 272.37 779.97 272.65 781.98 272.74C786.58 272.88 791.07 271.28 795.15 269.17C799.23 267.06 803.04 264.44 807.15 262.3C813.92 258.72 821.62 256.3 826.79 250.65C824.16 260.65 817.94 269.43 816.79 279.73C815.64 290.03 819.79 300.33 823.95 309.96L837.21 340.71C838.67 344.11 840.62 347.92 844.21 348.71C846.46 349.22 848.78 348.37 850.87 347.4C863.06 341.68 872.87 330.95 885.87 327.51C884.87 321.06 879.81 315.73 876.92 309.88C874.49 304.95 873.69 299.4 872.07 294.14C870.45 288.88 867.66 283.56 862.76 281.06C860.44 279.88 857.3 278.85 857.08 276.24C857.069 275.405 857.247 274.577 857.6 273.82C859.351 269.431 862.06 265.488 865.53 262.28C865.961 261.931 866.303 261.486 866.53 260.98C866.662 260.474 866.689 259.947 866.61 259.43C866.36 255.24 868.61 251.32 871.11 247.96C873.61 244.6 876.5 241.39 877.91 237.44C880.33 230.64 877.91 223.18 875.53 216.38C874.53 213.63 873.53 210.79 871.53 208.66C868.41 205.32 863.53 204.36 859 203.86C844.28 202.29 827 198.44 815.37 207.51Z" fill="#2F2E41"/>
<g opacity="0.1">
<path opacity="0.1" d="M871.06 237.26C868.55 240.63 866.31 244.54 866.56 248.73C866.639 249.247 866.612 249.774 866.48 250.28C866.254 250.789 865.911 251.238 865.48 251.59C862.008 254.796 859.298 258.739 857.55 263.13C857.196 263.887 857.018 264.714 857.03 265.55C857.17 267.18 858.46 268.2 860.03 269.02C861.547 266.545 863.398 264.29 865.53 262.32C865.961 261.971 866.303 261.526 866.53 261.02C866.662 260.514 866.689 259.987 866.61 259.47C866.36 255.28 868.61 251.36 871.11 248C873.61 244.64 876.5 241.43 877.91 237.48C879.124 233.622 879.249 229.504 878.27 225.58C878.16 225.97 878.04 226.36 877.91 226.74C876.45 230.67 873.56 233.89 871.06 237.26Z" fill="black"/>
<path opacity="0.1" d="M813.84 209.54C814.334 209.448 814.794 209.226 815.173 208.898C815.553 208.569 815.838 208.145 816 207.67C816.03 207.478 816.03 207.282 816 207.09C815.79 207.25 815.58 207.39 815.37 207.56C814.7 208.08 814.174 208.761 813.84 209.54V209.54Z" fill="black"/>
<path opacity="0.1" d="M769.34 304.04C765.897 303.548 762.515 302.697 759.25 301.5L729.51 291.75C728.361 294.971 727.025 298.123 725.51 301.19L759.2 312.19C762.462 313.396 765.845 314.248 769.29 314.73C772.573 315.004 775.878 314.846 779.12 314.26C779.02 310.73 778.94 307.14 778.86 303.56C775.721 304.13 772.521 304.291 769.34 304.04Z" fill="black"/>
<path opacity="0.1" d="M850.81 336.67C848.72 337.67 846.4 338.49 844.15 337.99C840.55 337.18 838.6 333.36 837.15 329.99L823.89 299.24C820.98 292.48 818.03 285.44 816.95 278.24C816.87 278.75 816.79 279.24 816.73 279.76C815.51 290.17 819.73 300.36 823.89 309.99L837.15 340.74C838.61 344.14 840.56 347.95 844.15 348.74C846.4 349.25 848.72 348.4 850.81 347.43C863 341.71 872.81 330.98 885.81 327.54C885.31 324.18 883.67 321.12 881.81 318.13C870.69 322.46 861.72 331.59 850.81 336.67Z" fill="black"/>
<path opacity="0.1" d="M826.77 239.94C821.6 245.59 813.9 248 807.13 251.58C803.07 253.73 799.27 256.35 795.13 258.46C790.99 260.57 786.56 262.16 781.96 262.03C779.96 261.97 777.69 261.65 776.14 262.93C776.46 266.28 777.43 269.52 777.98 272.84C779.306 272.661 780.648 272.635 781.98 272.76C786.58 272.9 791.07 271.3 795.15 269.19C799.23 267.08 803.04 264.46 807.15 262.32C811.61 259.96 816.47 258.1 820.75 255.5C822.89 250.39 825.35 245.35 826.77 239.94Z" fill="black"/>
</g>
<path d="M838.59 101.06C838.76 104.41 837.75 108 835.17 110.15C834.34 110.84 833.38 111.37 832.58 112.09C831.874 112.817 831.334 113.688 830.997 114.644C830.66 115.6 830.535 116.617 830.63 117.626C830.725 118.635 831.038 119.611 831.548 120.487C832.057 121.363 832.75 122.118 833.58 122.7C836.25 124.34 839.66 123.9 842.75 123.36C846.858 122.779 850.884 121.725 854.75 120.22C858.654 118.687 861.977 115.965 864.25 112.44C860.88 110.57 859.05 106.62 858.84 102.78C858.63 98.94 859.69 94.55 857.25 91.56C854.81 88.57 850.55 88.67 847 89.67C845.2 90.17 843.46 90.85 841.66 91.34C840.75 91.58 837.73 91.59 837.14 92.26C836 93.5 838.48 99.11 838.59 101.06Z" fill="#FBBEBE"/>
<path opacity="0.1" d="M838.59 101.06C838.76 104.41 837.75 108 835.17 110.15C834.34 110.84 833.38 111.37 832.58 112.09C831.874 112.817 831.334 113.688 830.997 114.644C830.66 115.6 830.535 116.617 830.63 117.626C830.725 118.635 831.038 119.611 831.548 120.487C832.057 121.363 832.75 122.118 833.58 122.7C836.25 124.34 839.66 123.9 842.75 123.36C846.858 122.779 850.884 121.725 854.75 120.22C858.654 118.687 861.977 115.965 864.25 112.44C860.88 110.57 859.05 106.62 858.84 102.78C858.63 98.94 859.69 94.55 857.25 91.56C854.81 88.57 850.55 88.67 847 89.67C845.2 90.17 843.46 90.85 841.66 91.34C840.75 91.58 837.73 91.59 837.14 92.26C836 93.5 838.48 99.11 838.59 101.06Z" fill="black"/>
<path d="M848.91 100.84C859.923 100.84 868.85 91.9126 868.85 80.9C868.85 69.8874 859.923 60.96 848.91 60.96C837.897 60.96 828.97 69.8874 828.97 80.9C828.97 91.9126 837.897 100.84 848.91 100.84Z" fill="#FBBEBE"/>
<path d="M786 233.88C785.644 235.457 785.007 236.958 784.12 238.31C781.801 242.444 780.962 247.245 781.74 251.92C782.165 254.237 783.152 256.414 784.615 258.261C786.078 260.107 787.972 261.566 790.13 262.51C791.99 263.25 794.3 263.44 795.84 262.15C793.18 258.69 793.04 253.96 793.2 249.59C793.153 248.775 793.348 247.964 793.76 247.26C793.868 247.092 794.01 246.948 794.177 246.836C794.343 246.725 794.531 246.65 794.727 246.614C794.924 246.578 795.127 246.584 795.321 246.629C795.516 246.675 795.7 246.76 795.86 246.88C795.795 249.628 796.327 252.358 797.42 254.88C797.84 255.88 798.56 256.88 799.62 256.88C801.14 256.88 801.55 254.78 801.49 253.26C801.26 247.08 800.95 240.64 797.97 235.21C796.88 233.21 795.43 231.37 794.97 229.14C794.952 228.367 794.686 227.62 794.21 227.01C793.882 226.752 793.499 226.574 793.09 226.49C791.37 226 787.31 224.49 785.89 226.1C784.47 227.71 786.23 231.82 786 233.88Z" fill="#FBBEBE"/>
<path d="M815.56 127.94C813.28 127.69 811.47 129.78 810.22 131.71C805.551 138.908 802.189 146.873 800.29 155.24C799.29 159.51 798.72 163.94 796.69 167.82C796.209 168.629 795.817 169.487 795.52 170.38C795.349 171.75 795.289 173.131 795.34 174.51C795.13 177 793.66 179.21 793.16 181.67C792.87 183.13 792.93 184.67 792.67 186.11C792.21 188.68 790.8 190.96 789.89 193.41C788.3 197.72 788.32 202.41 787.15 206.9C787.005 207.631 786.686 208.317 786.22 208.9C785.43 209.77 784.16 209.99 783.12 210.54C782.304 211.041 781.605 211.711 781.068 212.504C780.532 213.298 780.171 214.196 780.01 215.14C779.703 217.029 779.666 218.951 779.9 220.85L780.82 232.64C781.76 232.25 782.38 231.18 783.17 230.52C784.61 229.32 786.73 229.59 788.57 229.93L791.26 230.41C794.01 230.91 797 231.55 798.76 233.71C800.16 231.52 799.36 228.29 801.51 226.83C802.22 226.36 803.08 226.2 803.82 225.83C804.514 225.378 805.09 224.766 805.499 224.046C805.908 223.326 806.138 222.518 806.17 221.69C806.212 220.034 805.983 218.382 805.49 216.8C808.94 215.35 811.09 211.85 812.49 208.36C813.969 204.138 815.044 199.785 815.7 195.36C818.81 177.83 821.7 160.18 821.95 142.36C822.137 139.381 821.799 136.392 820.95 133.53C819.94 130.67 818.52 128.28 815.56 127.94Z" fill="#FF6F61"/>
<path opacity="0.1" d="M815.56 127.94C813.28 127.69 811.47 129.78 810.22 131.71C805.551 138.908 802.189 146.873 800.29 155.24C799.29 159.51 798.72 163.94 796.69 167.82C796.209 168.629 795.817 169.487 795.52 170.38C795.349 171.75 795.289 173.131 795.34 174.51C795.13 177 793.66 179.21 793.16 181.67C792.87 183.13 792.93 184.67 792.67 186.11C792.21 188.68 790.8 190.96 789.89 193.41C788.3 197.72 788.32 202.41 787.15 206.9C787.005 207.631 786.686 208.317 786.22 208.9C785.43 209.77 784.16 209.99 783.12 210.54C782.304 211.041 781.605 211.711 781.068 212.504C780.532 213.298 780.171 214.196 780.01 215.14C779.703 217.029 779.666 218.951 779.9 220.85L780.82 232.64C781.76 232.25 782.38 231.18 783.17 230.52C784.61 229.32 786.73 229.59 788.57 229.93L791.26 230.41C794.01 230.91 797 231.55 798.76 233.71C800.16 231.52 799.36 228.29 801.51 226.83C802.22 226.36 803.08 226.2 803.82 225.83C804.514 225.378 805.09 224.766 805.499 224.046C805.908 223.326 806.138 222.518 806.17 221.69C806.212 220.034 805.983 218.382 805.49 216.8C808.94 215.35 811.09 211.85 812.49 208.36C813.969 204.138 815.044 199.785 815.7 195.36C818.81 177.83 821.7 160.18 821.95 142.36C822.137 139.381 821.799 136.392 820.95 133.53C819.94 130.67 818.52 128.28 815.56 127.94Z" fill="black"/>
<path d="M865.83 108.86C862.533 112.298 858.326 114.726 853.7 115.86C849.11 116.993 844.422 117.686 839.7 117.93C838.244 118.173 836.751 118.042 835.36 117.55C834.02 116.95 833 115.36 833.55 114C833.779 113.587 833.931 113.137 834 112.67C834 111.46 832.19 111.36 831 111.72C823.32 114.09 816 118.79 812.42 126C810.42 130.08 809.76 134.66 809.12 139.15C807.46 150.97 805.79 163.05 808.03 174.77C809.22 181.02 811.52 187.12 811.66 193.48C811.74 197.05 811.14 200.6 811.17 204.17C811.063 205.417 811.395 206.662 812.11 207.69C812.66 208.33 813.5 208.74 813.88 209.49C814.52 210.75 813.66 212.49 814.51 213.62C815.51 215.01 817.74 214.01 819.17 213.03C826.406 208.112 835.147 205.909 843.85 206.81C854.3 207.94 864.68 213.5 874.85 210.72C874.322 209.963 873.869 209.156 873.5 208.31C868.5 191.7 868.79 173.14 876.35 157.52C878.94 152.18 882.35 147.09 883.35 141.25C883.753 138.514 883.787 135.735 883.45 132.99C882.92 127.68 881.65 122.33 878.77 117.84C875.89 113.35 871.14 109.38 865.83 108.86Z" fill="#FF6F61"/>
<path d="M817.59 239.01C816.782 241.181 816.392 243.484 816.44 245.8C816.365 248.015 816.475 250.233 816.77 252.43C816.94 254.306 817.61 256.101 818.71 257.63C819.273 258.389 820.049 258.963 820.94 259.278C821.831 259.593 822.795 259.636 823.71 259.4C824.427 259.102 825.069 258.648 825.588 258.07C826.107 257.492 826.491 256.805 826.71 256.06C827.139 254.573 827.453 253.055 827.65 251.52C828.53 246.99 830.9 242.74 830.95 238.13C830.979 237.584 830.891 237.038 830.69 236.53C829.83 234.63 825.59 232.53 823.52 232.83C820.92 233.23 818.53 236.83 817.59 239.01Z" fill="#FBBEBE"/>
<path opacity="0.1" d="M875.13 125.67C874.74 129.67 878.57 132.62 880.13 136.31C880.734 138.032 881.071 139.836 881.13 141.66C882.2 154.33 881.37 167.08 880.54 179.78C880.4 184.011 879.885 188.22 879 192.36C876.86 201.04 871.59 208.55 866.43 215.85C865.651 217.038 864.749 218.14 863.74 219.14C862.228 220.377 860.544 221.388 858.74 222.14L841 230.77C838.781 231.75 836.672 232.963 834.71 234.39C832.43 236.171 830.638 238.5 829.5 241.16C826.07 239.41 822.5 237.83 819.07 236.08C818.26 235.67 817.36 235.08 817.23 234.24C817.04 233.04 818.29 232.24 819.15 231.34C820.76 229.75 821.26 227.39 822.15 225.34C825 218.5 832.15 214.13 834.75 207.19C835.75 204.53 836.05 201.52 837.81 199.28C838.818 198.153 839.952 197.147 841.19 196.28C843.918 193.963 846.423 191.395 848.67 188.61C849.681 187.562 850.51 186.352 851.12 185.03C851.9 183.03 851.67 180.86 851.71 178.75C851.84 171.83 854.97 165.37 856.89 158.75C858.69 152.49 859.44 145.91 861.81 139.84C864.18 133.77 868.82 127.32 875.13 125.67Z" fill="black"/>
<path d="M877.43 125.67C877.04 129.67 880.87 132.62 882.43 136.31C883.034 138.032 883.371 139.836 883.43 141.66C884.5 154.33 883.67 167.08 882.84 179.78C882.692 184.005 882.17 188.208 881.28 192.34C879.14 201.02 873.87 208.53 868.71 215.83C867.931 217.018 867.029 218.12 866.02 219.12C864.508 220.357 862.824 221.368 861.02 222.12L843.32 230.7C841.101 231.68 838.992 232.893 837.03 234.32C834.75 236.101 832.958 238.43 831.82 241.09C828.39 239.34 824.82 237.76 821.39 236.01C820.58 235.6 819.68 235.01 819.55 234.17C819.36 232.97 820.61 232.17 821.47 231.27C823.08 229.68 823.58 227.32 824.47 225.27C827.32 218.43 834.47 214.06 837.07 207.12C838.07 204.46 838.37 201.45 840.13 199.21C841.138 198.083 842.272 197.077 843.51 196.21C846.239 193.891 848.746 191.323 851 188.54C852.009 187.492 852.834 186.282 853.44 184.96C854.22 182.96 853.99 180.79 854.03 178.68C854.16 171.76 857.29 165.3 859.21 158.68C861.01 152.42 861.76 145.84 864.13 139.77C866.5 133.7 871.12 127.32 877.43 125.67Z" fill="#FF6F61"/>
<path d="M858.8 50.09C852.658 49.332 846.438 50.6182 841.1 53.75C841.88 53.75 842.67 53.83 843.47 53.93C849.37 54.6416 854.898 57.1882 859.273 61.2103C863.648 65.2324 866.65 70.5269 867.854 76.3466C869.059 82.1663 868.405 88.2172 865.986 93.6454C863.566 99.0737 859.503 103.605 854.37 106.6C861.671 106.845 868.785 104.265 874.23 99.3959C879.676 94.5273 883.034 87.7456 883.605 80.4632C884.176 73.1807 881.916 65.9587 877.295 60.3009C872.675 54.6431 866.05 50.9856 858.8 50.09V50.09Z" fill="#2F2E41"/>
<path d="M867.53 65.86C868.918 69.0133 868.997 72.5884 867.75 75.8C867.62 75.3881 867.467 74.9841 867.29 74.59C863.78 66.78 852.98 63.59 843.16 67.37C837.37 69.62 833.22 73.82 831.5 78.48C829 70.94 834.08 62.27 843.4 58.65C853.22 54.83 864 58.06 867.53 65.86Z" fill="#2F2E41"/>
<g opacity="0.1">
<path opacity="0.1" d="M867.58 75.18C867.123 69.6982 865.084 64.4669 861.711 60.1214C858.339 55.7759 853.777 52.503 848.58 50.7C845.944 51.3377 843.411 52.3478 841.06 53.7C841.84 53.7 842.63 53.78 843.43 53.88C849.14 54.5643 854.507 56.9677 858.82 60.7716C863.133 64.5756 866.188 69.6003 867.58 75.18V75.18Z" fill="black"/>
<path opacity="0.1" d="M872.18 54.47C871.725 48.9888 869.687 43.758 866.313 39.4137C862.94 35.0695 858.378 31.799 853.18 30C850.541 30.6289 848.007 31.6396 845.66 33C846.44 33 847.23 33.08 848.03 33.18C853.739 33.8623 859.106 36.2638 863.419 40.066C867.732 43.8682 870.787 48.8916 872.18 54.47V54.47Z" fill="black"/>
<path opacity="0.1" d="M872.3 23.55C872.028 20.2435 870.802 17.087 868.772 14.4635C866.741 11.84 863.993 9.86212 860.86 8.76999C859.262 9.17799 857.732 9.81813 856.32 10.67C856.79 10.67 857.27 10.67 857.75 10.77C861.181 11.1837 864.407 12.6257 867.004 14.9066C869.601 17.1875 871.447 20.2006 872.3 23.55V23.55Z" fill="black"/>
<path opacity="0.1" d="M882.91 71.33C883.474 78.1423 881.559 84.9291 877.516 90.4413C873.474 95.9536 867.577 99.8204 860.91 101.33C858.999 103.411 856.788 105.194 854.35 106.62C858.75 106.783 863.127 105.92 867.135 104.098C871.143 102.276 874.671 99.5454 877.441 96.1228C880.21 92.7003 882.145 88.6797 883.091 84.3798C884.036 80.0799 883.968 75.6188 882.89 71.35L882.91 71.33Z" fill="black"/>
</g>
<path opacity="0.1" d="M957 67.02C953.046 66.275 948.96 66.7205 945.26 68.3C943.042 69.2918 940.64 69.8045 938.21 69.8045C935.78 69.8045 933.378 69.2918 931.16 68.3C928.538 67.1515 925.697 66.5854 922.835 66.6406C919.973 66.6959 917.156 67.3712 914.58 68.62C913.11 69.3997 911.474 69.8115 909.81 69.82C903.09 69.82 897.5 63.05 896.34 54.11C897.682 53.1303 898.823 51.9012 899.7 50.49C903.64 44.14 909.7 40.07 916.59 40.07C923.48 40.07 929.48 44.07 933.42 50.38C934.598 52.2731 936.244 53.8313 938.198 54.9048C940.153 55.9784 942.35 56.5311 944.58 56.51H944.76C950.06 56.48 954.69 60.77 957 67.02Z" fill="#9FFD77"/>
<path opacity="0.1" d="M977.42 38.99L966.56 45.88L973.15 33.88C971.285 32.3839 968.971 31.5564 966.58 31.53H966.41C965.657 31.5474 964.903 31.4939 964.16 31.37L960.47 33.67L962.05 30.8C959.442 29.8881 957.189 28.1769 955.61 25.91L949 30.13L953.16 22.56C949.31 17.94 944.16 15.1 938.4 15.1C931.55 15.1 925.4 19.17 921.5 25.53C920.332 27.4253 918.683 28.9783 916.722 30.0319C914.76 31.0855 912.555 31.6023 910.33 31.53H910C902.44 31.53 896.3 40.11 896.3 50.69C896.3 61.27 902.44 69.85 910 69.85C911.664 69.8463 913.302 69.4343 914.77 68.65C917.346 67.4012 920.163 66.7259 923.025 66.6706C925.887 66.6154 928.728 67.1815 931.35 68.33C933.581 69.3261 935.996 69.8439 938.44 69.85C940.852 69.847 943.236 69.3394 945.44 68.36C948.042 67.2333 950.855 66.6788 953.69 66.734C956.524 66.7892 959.314 67.4529 961.87 68.68C963.327 69.4433 964.946 69.8447 966.59 69.85C974.16 69.85 980.29 61.27 980.29 50.69C980.328 46.6112 979.342 42.5881 977.42 38.99V38.99Z" fill="#9FFD77"/>
<path opacity="0.1" d="M1040 195.54C1034.35 194.469 1028.51 195.106 1023.23 197.37C1020.06 198.784 1016.63 199.515 1013.16 199.515C1009.69 199.515 1006.26 198.784 1003.09 197.37C999.345 195.729 995.288 194.92 991.199 195C987.111 195.079 983.089 196.045 979.41 197.83C977.309 198.946 974.969 199.532 972.59 199.54C962.99 199.54 955 189.87 953.34 177.11C955.256 175.706 956.886 173.948 958.14 171.93C963.77 162.86 972.49 157.04 982.28 157.04C992.07 157.04 1000.68 162.79 1006.28 171.77C1007.96 174.486 1010.32 176.72 1013.13 178.255C1015.93 179.79 1019.08 180.574 1022.28 180.53H1022.53C1030.11 180.48 1036.73 186.61 1040 195.54Z" fill="#9FFD77"/>
<path opacity="0.1" d="M1069.2 155.49L1053.68 165.34L1063.1 148.2C1060.43 146.073 1057.12 144.895 1053.71 144.85H1053.46C1052.38 144.861 1051.3 144.78 1050.24 144.61L1044.98 147.94L1047.24 143.84C1043.51 142.538 1040.29 140.087 1038.04 136.84L1028.62 142.84L1034.62 132.03C1029.11 125.42 1021.69 121.36 1013.53 121.36C1003.74 121.36 995.02 127.19 989.39 136.26C987.725 138.983 985.366 141.215 982.554 142.726C979.743 144.238 976.58 144.974 973.39 144.86H972.86C962.05 144.86 953.29 157.12 953.29 172.23C953.29 187.34 962.05 199.6 972.86 199.6C975.237 199.592 977.577 199.009 979.68 197.9C983.357 196.11 987.38 195.142 991.468 195.06C995.557 194.979 999.615 195.788 1003.36 197.43C1006.53 198.852 1009.95 199.591 1013.42 199.6C1016.89 199.609 1020.33 198.886 1023.5 197.48C1027.22 195.869 1031.24 195.076 1035.29 195.153C1039.34 195.231 1043.33 196.178 1046.98 197.93C1049.06 199.019 1051.37 199.591 1053.72 199.6C1064.53 199.6 1073.29 187.35 1073.29 172.23C1073.35 166.395 1071.95 160.638 1069.2 155.49V155.49Z" fill="url(#paint2_linear)"/>
<path opacity="0.1" d="M692.62 140.02C696.574 139.275 700.66 139.721 704.36 141.3C706.576 142.292 708.977 142.805 711.405 142.805C713.833 142.805 716.234 142.292 718.45 141.3C721.072 140.152 723.913 139.585 726.775 139.641C729.637 139.696 732.454 140.371 735.03 141.62C736.5 142.399 738.137 142.81 739.8 142.82C746.52 142.82 752.12 136.05 753.28 127.11C751.935 126.133 750.794 124.904 749.92 123.49C745.98 117.14 739.92 113.07 733.02 113.07C726.12 113.07 720.14 117.07 716.2 123.38C715.015 125.273 713.361 126.829 711.399 127.898C709.438 128.966 707.234 129.511 705 129.48H704.83C699.51 129.48 694.87 133.77 692.62 140.02Z" fill="#9FFD77"/>
<path opacity="0.1" d="M672.14 111.99L683 118.88L676.4 106.88C678.266 105.385 680.579 104.558 682.97 104.53H683.15C683.903 104.547 684.657 104.494 685.4 104.37L689.08 106.7L687.5 103.83C690.111 102.919 692.368 101.208 693.95 98.94L700.54 103.12L696.37 95.55C700.23 90.93 705.37 88.09 711.14 88.09C717.99 88.09 724.14 92.16 728.04 98.52C729.208 100.416 730.856 101.97 732.818 103.023C734.779 104.077 736.985 104.593 739.21 104.52H739.57C747.14 104.52 753.27 113.1 753.27 123.68C753.27 134.26 747.14 142.84 739.57 142.84C737.906 142.834 736.269 142.422 734.8 141.64C732.224 140.391 729.407 139.716 726.545 139.661C723.683 139.605 720.842 140.171 718.22 141.32C715.992 142.316 713.58 142.834 711.14 142.84C708.728 142.839 706.343 142.331 704.14 141.35C701.537 140.223 698.722 139.669 695.885 139.724C693.049 139.779 690.258 140.443 687.7 141.67C686.244 142.434 684.625 142.836 682.98 142.84C675.42 142.84 669.28 134.26 669.28 123.68C669.24 119.605 670.224 115.586 672.14 111.99V111.99Z" fill="#9FFD77"/>
</g>
<defs>
<linearGradient id="paint0_linear" x1="594" y1="795.33" x2="594" y2="46.67" gradientUnits="userSpaceOnUse">
<stop stop-color="#9FFD77"/>
<stop offset="1" stop-color="#3F3D56"/>
</linearGradient>
<linearGradient id="paint1_linear" x1="823.47" y1="403.25" x2="823.47" y2="7.48033e-06" gradientUnits="userSpaceOnUse">
<stop stop-color="#808080" stop-opacity="0.25"/>
<stop offset="0.54" stop-color="#808080" stop-opacity="0.12"/>
<stop offset="1" stop-color="#808080" stop-opacity="0.1"/>
</linearGradient>
<linearGradient id="paint2_linear" x1="1013.29" y1="121.36" x2="1013.29" y2="199.6" gradientUnits="userSpaceOnUse">
<stop stop-color="#5BFF15"/>
<stop offset="0.958333" stop-color="#3AA80B" stop-opacity="0.942708"/>
<stop offset="1" stop-color="#5BFF15" stop-opacity="0"/>
</linearGradient>
<clipPath id="clip0">
<rect width="1188" height="795.33" fill="white"/>
</clipPath>
</defs>
</svg>
