<svg width="957" height="714" viewBox="0 0 957 714" fill="none" xmlns="http://www.w3.org/2000/svg">
<g clip-path="url(#clip0)">
<g filter="url(#filter0_d)">
<path d="M471 713.19C731.126 713.19 942 692.595 942 667.19C942 641.785 731.126 621.19 471 621.19C210.874 621.19 0 641.785 0 667.19C0 692.595 210.874 713.19 471 713.19Z" fill="url(#paint0_linear)"/>
</g>
<path opacity="0.1" d="M331 694.19C453.607 694.19 553 679.192 553 660.69C553 642.188 453.607 627.19 331 627.19C208.393 627.19 109 642.188 109 660.69C109 679.192 208.393 694.19 331 694.19Z" fill="#030303"/>
<g filter="url(#filter1_i)">
<path d="M220.37 260.74C116.11 260.74 31.6 345.26 31.6 449.51C31.6 553.76 116.15 638.28 220.37 638.28C233.215 638.285 246.028 636.985 258.61 634.4C240.649 604.871 231.175 570.962 231.23 536.4C231.23 445.26 295.83 369.2 381.75 351.52C364.923 323.793 341.231 300.872 312.963 284.97C284.695 269.069 252.804 260.723 220.37 260.74V260.74Z" fill="#2BC99A"/>
</g>
<path opacity="0.1" d="M50.65 454.94C50.65 350.69 135.17 266.18 239.42 266.18C249.569 266.181 259.701 266.994 269.72 268.61C253.629 264.275 237.035 262.086 220.37 262.1C116.11 262.1 31.6 346.62 31.6 450.87C31.6 544.87 100.29 622.78 190.21 637.22C150.151 626.393 114.775 602.672 89.5487 569.724C64.3226 536.776 50.652 496.436 50.65 454.94V454.94Z" fill="black"/>
<g filter="url(#filter2_i)">
<path d="M380.85 350.15C408.579 333.324 431.502 309.633 447.405 281.365C463.309 253.096 471.656 221.205 471.64 188.77C471.64 84.52 387.13 0 282.87 0C178.61 0 94.11 84.52 94.11 188.77C94.1051 201.618 95.4051 214.434 97.99 227.02C127.515 209.048 161.426 199.57 195.99 199.63C287.11 199.6 363.17 264.24 380.85 350.15Z" fill="#2BC99A"/>
</g>
<path opacity="0.1" d="M455.37 188.77C455.392 218.333 448.46 247.486 435.135 273.875C421.809 300.264 402.463 323.149 378.66 340.68C379.47 343.81 380.22 346.96 380.88 350.15C408.609 333.324 431.532 309.633 447.435 281.365C463.339 253.096 471.686 221.205 471.67 188.77C471.67 84.52 387.16 0 282.9 0C280.17 0 277.46 0.0699948 274.76 0.189995C375.2 4.45999 455.37 87.25 455.37 188.77Z" fill="black"/>
<path d="M372.61 435.04C369.518 436.619 366.579 438.48 363.83 440.6C361.067 442.738 358.952 445.601 357.72 448.87C356.01 445.32 355.08 441.46 353.94 437.69C351.757 430.85 349.179 424.142 346.22 417.6C351.092 415.74 355.315 412.497 358.37 408.27C364.37 414.22 370.48 420.42 373.45 428.27C373.96 429.63 375.45 431.08 375.8 432.27C376.27 434.04 373.91 434.32 372.61 435.04Z" fill="#FFBFC5"/>
<g filter="url(#filter3_d)">
<path d="M207.37 627.72C207.37 672.34 239.56 677.07 279.28 677.07C319 677.07 351.18 672.34 351.18 627.72C351.18 583.1 318.99 566.15 279.28 566.15C239.57 566.15 207.37 583.11 207.37 627.72Z" fill="#393845"/>
</g>
<path d="M428.8 579.97C435.324 582.028 441.408 585.283 446.74 589.57C447.14 589.82 447.43 590.213 447.55 590.67C447.69 591.67 446.31 592.12 445.31 592.41C442.31 593.26 440.48 596.03 438.31 598.19C436.14 600.35 432.66 602.06 430.13 600.33C429.465 599.82 428.885 599.21 428.41 598.52L417.73 584.6C421.351 582.572 425.158 580.898 429.1 579.6" fill="#F1F1F1"/>
<path d="M448.01 582.87C449.43 584.31 450.01 586.39 451.43 587.87C452.361 588.762 453.428 589.501 454.59 590.06L462.77 594.56C464.039 595.312 465.379 595.939 466.77 596.43C468.309 596.869 469.876 597.203 471.46 597.43C473.729 597.868 475.948 598.539 478.08 599.43C479.68 600.09 481.47 601.22 481.46 602.95C481.391 603.8 481.039 604.603 480.46 605.23C477.24 609.29 471.53 610.23 466.37 610.74C455.21 611.92 443.79 612.8 432.88 610.17C430.749 609.778 428.735 608.906 426.99 607.62C423.7 604.89 422.99 599.92 424.27 595.83C424.617 594.258 425.546 592.876 426.87 591.96C428.6 590.96 430.75 591.43 432.74 591.28C434.836 590.984 436.865 590.331 438.74 589.35C439.99 588.79 441.42 588.06 441.74 586.58C442.06 585.1 440.37 583.82 440.74 582.58C441.44 579.79 446.71 581.54 448.01 582.87Z" fill="#575A89"/>
<path opacity="0.1" d="M448.01 582.87C449.43 584.31 450.01 586.39 451.43 587.87C452.361 588.762 453.428 589.501 454.59 590.06L462.77 594.56C464.039 595.312 465.379 595.939 466.77 596.43C468.309 596.869 469.876 597.203 471.46 597.43C473.729 597.868 475.948 598.539 478.08 599.43C479.68 600.09 481.47 601.22 481.46 602.95C481.391 603.8 481.039 604.603 480.46 605.23C477.24 609.29 471.53 610.23 466.37 610.74C455.21 611.92 443.79 612.8 432.88 610.17C430.749 609.778 428.735 608.906 426.99 607.62C423.7 604.89 422.99 599.92 424.27 595.83C424.617 594.258 425.546 592.876 426.87 591.96C428.6 590.96 430.75 591.43 432.74 591.28C434.836 590.984 436.865 590.331 438.74 589.35C439.99 588.79 441.42 588.06 441.74 586.58C442.06 585.1 440.37 583.82 440.74 582.58C441.44 579.79 446.71 581.54 448.01 582.87Z" fill="black"/>
<path d="M466.98 627.53L470.42 629.8C471.471 630.362 472.336 631.216 472.91 632.26C473.66 634.01 472.65 635.99 471.53 637.53C468.169 642.127 463.58 645.683 458.29 647.79C456.456 648.553 454.518 649.035 452.54 649.22C452.09 649.294 451.629 649.238 451.21 649.06C450.16 648.5 450.31 647.01 450.3 645.82C450.3 642.39 447.67 639.6 445.3 637.07C442.93 634.54 440.59 631.44 441.13 628.07C441.625 626.067 442.663 624.24 444.13 622.79C445.418 621.165 446.934 619.733 448.63 618.54C451.06 616.95 451.91 617.81 454.19 619.26C458.477 621.987 462.74 624.743 466.98 627.53Z" fill="#F1F1F1"/>
<path d="M455.82 644.27C456.754 644.506 457.731 644.519 458.671 644.307C459.611 644.095 460.488 643.664 461.23 643.05C462.708 641.81 463.905 640.269 464.74 638.53C465.58 636.991 466.308 635.393 466.92 633.75C467.64 631.82 468.3 629.69 470 628.52C472 627.1 474.94 627.66 477 629.03C479.06 630.4 480.62 632.43 482.39 634.19C486.56 638.35 492.05 640.98 497.69 642.7C503.33 644.42 509.18 645.28 514.97 646.39C516.132 646.545 517.256 646.908 518.29 647.46C520.63 648.89 521.42 652.08 520.76 654.74C520.1 657.4 518.37 659.6 516.48 661.6C514.905 663.466 512.952 664.976 510.75 666.03C508.892 666.707 506.937 667.079 504.96 667.13C495.369 667.777 485.734 667.023 476.36 664.89C472.92 663.95 469.418 663.252 465.88 662.8C463.73 662.61 461.55 662.67 459.4 662.52C455.105 662.224 450.904 661.118 447.02 659.26C446.076 658.911 445.281 658.247 444.77 657.38C444.488 656.584 444.429 655.727 444.6 654.9L446.03 642.36C446.16 641.27 446.52 639.91 447.61 639.74C448.7 639.57 449.39 640.64 450.04 641.46C451.301 642.968 453.028 644.014 454.948 644.434C456.869 644.854 458.874 644.624 460.65 643.78" fill="#575A89"/>
<path d="M372.78 486.13C379.07 485.42 386.37 485.3 390.63 489.99C393.24 492.87 394.03 496.9 394.93 500.67C396.341 507.013 398.637 513.126 401.75 518.83C403.75 522.37 406.18 525.68 407.75 529.44C409.32 533.2 409.91 537.44 410.83 541.53C414.515 557.57 423.516 571.893 436.37 582.17C434.1 588.34 427.53 591.87 421.14 593.45C419.598 593.961 417.941 594.013 416.37 593.6C415.18 593.085 414.123 592.305 413.28 591.32C410.294 588.093 407.512 584.683 404.95 581.11C395.74 568.81 386.4 556.26 381.38 541.75C379.62 536.65 377.86 530.75 372.91 528.58C370.09 527.36 366.86 527.74 363.83 528.26C357.059 529.405 350.396 531.114 343.91 533.37C336.99 535.78 329.07 538.74 322.74 535.06C318.95 532.85 316.74 528.62 315.87 524.32C315 520.02 315.44 515.58 315.87 511.22C315.912 509.255 316.383 507.324 317.25 505.56C318.127 504.24 319.251 503.102 320.56 502.21C326.215 497.927 332.504 494.553 339.2 492.21C345.59 489.95 352.47 489.21 359.14 488.08C363.667 487.293 368.213 486.643 372.78 486.13Z" fill="#575A89"/>
<path opacity="0.1" d="M372.78 486.13C379.07 485.42 386.37 485.3 390.63 489.99C393.24 492.87 394.03 496.9 394.93 500.67C396.341 507.013 398.637 513.126 401.75 518.83C403.75 522.37 406.18 525.68 407.75 529.44C409.32 533.2 409.91 537.44 410.83 541.53C414.515 557.57 423.516 571.893 436.37 582.17C434.1 588.34 427.53 591.87 421.14 593.45C419.598 593.961 417.941 594.013 416.37 593.6C415.18 593.085 414.123 592.305 413.28 591.32C410.294 588.093 407.512 584.683 404.95 581.11C395.74 568.81 386.4 556.26 381.38 541.75C379.62 536.65 377.86 530.75 372.91 528.58C370.09 527.36 366.86 527.74 363.83 528.26C357.059 529.405 350.396 531.114 343.91 533.37C336.99 535.78 329.07 538.74 322.74 535.06C318.95 532.85 316.74 528.62 315.87 524.32C315 520.02 315.44 515.58 315.87 511.22C315.912 509.255 316.383 507.324 317.25 505.56C318.127 504.24 319.251 503.102 320.56 502.21C326.215 497.927 332.504 494.553 339.2 492.21C345.59 489.95 352.47 489.21 359.14 488.08C363.667 487.293 368.213 486.643 372.78 486.13Z" fill="black"/>
<path d="M408.8 531.51C411.737 532.978 414.434 534.883 416.8 537.16C419.35 539.88 420.9 543.39 422.22 546.89C422.738 548.083 423.056 549.353 423.16 550.65C423.208 551.298 423.108 551.948 422.867 552.551C422.626 553.154 422.251 553.694 421.77 554.13C420.608 554.892 419.225 555.244 417.84 555.13C416.02 555.13 414.19 555.13 412.37 554.99C411.261 554.982 410.163 554.771 409.13 554.37C408.184 553.887 407.331 553.24 406.61 552.46C403.403 549.482 400.775 545.935 398.86 542C397.54 539.09 395.36 532.37 397.44 529.34C399.52 526.31 406.54 530.22 408.8 531.51Z" fill="#FFBFC5"/>
<path d="M320.57 530.47C329.88 533.47 339.79 533.79 349.52 534.7C365.886 536.232 382.053 539.428 397.77 544.24C400.99 545.24 404.28 546.32 406.87 548.47C408.975 550.416 410.757 552.684 412.15 555.19C414.707 559.084 417.021 563.132 419.08 567.31C420.85 571.09 422.2 575.05 423.84 578.88C429.365 591.709 438.103 602.899 449.21 611.37C451.21 612.92 453.5 614.6 454.02 617.09C454.257 618.696 453.995 620.337 453.27 621.79C450.87 627.38 445.89 631.45 440.66 634.56C438.42 635.9 435.94 637.25 434.84 639.63C426.9 636.35 420.99 629.35 416.08 622.31C411.17 615.27 406.8 607.68 400.5 601.84C397.73 599.26 394.58 597.02 392.39 593.92C389.06 589.2 388.16 582.74 383.68 579.1C379.2 575.46 372.68 575.93 366.89 576.5C337.225 579.392 307.333 579.057 277.74 575.5C271.59 574.77 265.27 573.83 259.94 570.66C254.61 567.49 250.46 561.57 251.21 555.42C251.92 549.66 256.71 545.1 262.06 542.85C267.41 540.6 273.31 540.19 279.06 539.54C293.37 537.96 307.03 535.36 320.57 530.47Z" fill="#575A89"/>
<path d="M235.48 542.42C236.21 537.54 238.1 532.92 239.29 528.13C239.884 525.115 240.638 522.134 241.55 519.2C241.55 519.11 241.62 519.03 241.65 518.95C241.952 518.926 242.244 518.835 242.507 518.685C242.77 518.534 242.996 518.328 243.17 518.08C243.334 517.653 243.379 517.19 243.3 516.74C243.265 516.264 243.265 515.786 243.3 515.31C245.249 512.044 247.379 508.889 249.68 505.86C253.68 500.15 257.2 494.08 260.68 488.02C263.54 483.02 266.4 478.08 268.76 472.86C270.54 468.95 272.03 464.86 273.99 461.08C280.99 447.48 293.51 437.45 306.99 430.25C319.93 423.34 333.92 418.69 347.52 413.19C347.866 413.537 348.184 413.912 348.47 414.31C355.82 424.36 356.61 437.56 359.64 449.64C360.86 454.52 362.49 459.38 362.49 464.4C362.49 471.82 358.94 478.72 355.41 485.25C352.1 491.4 348.69 497.55 344.3 502.98C342.22 505.56 339.93 507.98 337.84 510.53C329.26 521.04 324.31 533.97 319.49 546.66C316.71 554.01 312.15 560.52 309.09 567.76C307.91 570.54 307.23 573.53 305.75 576.17C304.27 578.81 301.7 581.11 298.68 581.17C297.796 581.143 296.92 581.005 296.07 580.76C285.14 577.95 275.99 570.76 266.91 564.02C265.28 562.82 263.65 561.64 261.91 560.56C260.17 559.48 258.41 558.49 256.63 557.56L252.57 555.33C248.15 552.91 243.71 550.48 239.1 548.43C237.709 547.887 236.37 547.217 235.1 546.43C235.113 545.085 235.241 543.744 235.48 542.42Z" fill="#B2ABFF"/>
<path d="M378.36 434.2C392.267 434.2 403.54 422.927 403.54 409.02C403.54 395.113 392.267 383.84 378.36 383.84C364.453 383.84 353.18 395.113 353.18 409.02C353.18 422.927 364.453 434.2 378.36 434.2Z" fill="#FFBFC5"/>
<path d="M395.31 397.24C395.923 398.3 396.846 399.146 397.954 399.667C399.062 400.187 400.303 400.355 401.51 400.15C402.712 399.909 403.849 399.416 404.847 398.704C405.845 397.993 406.681 397.078 407.3 396.02C408.525 393.897 409.257 391.525 409.44 389.08C409.65 387.17 409.62 385.08 408.39 383.59C407.455 382.675 406.378 381.919 405.2 381.35C403.57 380.35 402.2 378.98 401.2 377.35C400.5 376.18 399.99 374.91 399.36 373.71C397.07 369.36 392.61 365.82 387.7 365.98C385.34 366.06 383.09 366.98 380.76 367.36C372.95 368.73 364.47 364.6 357.22 367.82C355.44 368.687 353.785 369.79 352.3 371.1C350.26 372.787 348.3 374.56 346.42 376.42C344.788 377.81 343.552 379.608 342.84 381.63C341.84 385.33 344.19 389.46 342.7 392.98C342.194 393.989 341.588 394.944 340.89 395.83C339.25 398.24 341.03 407.65 340.89 410.56C340.687 411.973 341.046 413.409 341.89 414.56C343.08 415.89 345.07 416 346.89 416.02H350.16C350.648 416.056 351.139 416.005 351.61 415.87C352.253 415.588 352.819 415.156 353.26 414.61C355.98 411.74 356.56 402.37 360.51 402.41C361.112 402.37 361.712 402.524 362.22 402.85C362.93 403.37 363.14 404.34 363.65 405.06C364.229 405.745 365.013 406.226 365.887 406.432C366.76 406.637 367.676 406.556 368.5 406.2C370.13 405.443 371.549 404.296 372.63 402.86C373.705 401.426 375.009 400.179 376.49 399.17C378.6 397.94 380.98 397.41 383.03 396.02C384.74 394.86 385.71 393.18 387.25 391.9C388.79 390.62 390.09 390.8 391.73 391.65C394.1 392.96 394.2 395.04 395.31 397.24Z" fill="#3F3D56"/>
<path opacity="0.1" d="M337.13 441.6C343.008 440.761 348.999 441.24 354.67 443C356.563 443.437 358.273 444.454 359.56 445.91C360.296 447.009 360.775 448.26 360.96 449.57C362.116 455.594 361.372 461.828 358.83 467.41C358.651 467.689 358.533 468.002 358.483 468.329C358.433 468.656 358.452 468.991 358.54 469.31C358.799 469.711 359.14 470.051 359.54 470.31C359.893 470.651 360.169 471.063 360.351 471.518C360.534 471.973 360.618 472.462 360.598 472.952C360.578 473.442 360.455 473.922 360.236 474.362C360.018 474.801 359.709 475.189 359.33 475.5C358.86 475.84 358.24 476.14 358.15 476.71C358.06 477.28 358.64 477.83 359.1 478.27C359.771 478.927 360.265 479.742 360.538 480.64C360.81 481.539 360.852 482.491 360.66 483.41C360.412 484.147 360.241 484.908 360.15 485.68C360.25 486.628 360.532 487.548 360.98 488.39C361.744 490.292 362.003 492.359 361.73 494.39C361.488 495.349 361.464 496.35 361.66 497.32C361.941 497.961 362.319 498.554 362.78 499.08C364.59 501.52 364.98 505.6 362.36 507.08C363.483 507.658 364.397 508.571 364.976 509.693C365.555 510.816 365.77 512.09 365.59 513.34C367.16 512.51 369.06 513.58 370.37 514.78C371.68 515.98 373.01 517.46 374.78 517.55C376.02 517.61 377.33 516.97 378.45 517.48C380.17 518.25 380.11 521.04 381.8 521.87C383.28 522.61 385.35 521.41 386.61 522.48C387.05 522.85 387.27 523.42 387.7 523.81C388.65 524.69 390.15 524.32 391.45 524.26C394.52 524.14 397.35 526.26 398.94 528.84C400.53 531.42 401.1 534.57 401.51 537.61C401.848 539.28 401.814 541.004 401.41 542.66C401.198 543.483 400.748 544.225 400.117 544.794C399.485 545.363 398.7 545.734 397.86 545.86C382.41 546.86 367.16 543.15 352.11 539.49C347.69 538.41 343.2 537.15 339.51 534.49C336.16 532.06 333.7 528.64 331.3 525.28C326.87 519.07 322.41 512.82 319.24 505.89C315.16 496.98 313.34 487.22 311.56 477.57C310.946 474.984 310.727 472.321 310.91 469.67C311.449 466.571 312.635 463.62 314.39 461.01C316.507 457.553 318.846 454.236 321.39 451.08C325.26 446.31 331.05 442.47 337.13 441.6Z" fill="black"/>
<path d="M338.14 440.6C344.022 439.761 350.017 440.242 355.69 442.01C357.584 442.439 359.295 443.453 360.58 444.91C361.312 446.011 361.79 447.261 361.98 448.57C363.131 454.594 362.387 460.827 359.85 466.41C359.671 466.689 359.553 467.002 359.503 467.329C359.453 467.656 359.472 467.991 359.56 468.31C359.819 468.711 360.16 469.051 360.56 469.31C360.913 469.651 361.189 470.063 361.371 470.518C361.554 470.973 361.638 471.462 361.618 471.952C361.598 472.442 361.475 472.922 361.256 473.362C361.038 473.801 360.729 474.189 360.35 474.5C359.88 474.84 359.26 475.14 359.17 475.71C359.08 476.28 359.66 476.83 360.17 477.27C360.841 477.927 361.335 478.742 361.608 479.64C361.88 480.539 361.922 481.491 361.73 482.41C361.482 483.147 361.311 483.908 361.22 484.68C361.316 485.628 361.595 486.548 362.04 487.39C362.812 489.29 363.074 491.358 362.8 493.39C362.491 494.188 362.426 495.06 362.613 495.895C362.8 496.729 363.23 497.49 363.85 498.08C365.66 500.52 366.05 504.6 363.43 506.14C364.553 506.715 365.468 507.627 366.047 508.747C366.626 509.868 366.84 511.142 366.66 512.39C368.23 511.56 370.13 512.63 371.44 513.83C372.75 515.03 374.08 516.51 375.85 516.6C377.09 516.66 378.39 516.02 379.52 516.53C381.24 517.31 381.18 520.09 382.87 520.93C384.35 521.66 386.42 520.46 387.68 521.53C388.12 521.9 388.34 522.47 388.77 522.86C389.72 523.74 391.22 523.37 392.52 523.31C395.59 523.19 398.42 525.31 400.01 527.89C401.458 530.607 402.332 533.592 402.58 536.66C402.9 538.315 402.866 540.019 402.48 541.66C402.268 542.483 401.818 543.225 401.187 543.794C400.555 544.363 399.77 544.734 398.93 544.86C383.48 545.86 368.23 542.15 353.18 538.49C348.76 537.41 344.26 536.15 340.58 533.49C337.23 531.07 334.77 527.64 332.37 524.28C327.94 518.08 323.48 511.83 320.31 504.9C316.23 495.98 314.41 486.22 312.63 476.58C312.016 473.991 311.797 471.324 311.98 468.67C312.49 465.574 313.645 462.621 315.37 460C317.482 456.542 319.82 453.228 322.37 450.08C326.28 445.29 332.07 441.46 338.14 440.6Z" fill="#F36363"/>
<path d="M909.18 264.11C911.883 263.595 914.452 262.531 916.727 260.984C919.003 259.436 920.936 257.439 922.408 255.114C923.88 252.789 924.86 250.187 925.286 247.468C925.712 244.75 925.575 241.973 924.885 239.309C924.195 236.645 922.965 234.152 921.272 231.983C919.579 229.813 917.459 228.015 915.043 226.698C912.627 225.381 909.966 224.574 907.225 224.326C904.485 224.079 901.723 224.397 899.11 225.26C906.944 236.617 910.511 250.378 909.18 264.11V264.11Z" fill="#F1F1F1"/>
<path d="M940.37 255.98C943.073 255.465 945.642 254.401 947.917 252.854C950.193 251.306 952.126 249.309 953.598 246.984C955.07 244.659 956.05 242.057 956.476 239.338C956.902 236.62 956.765 233.843 956.075 231.179C955.385 228.516 954.155 226.022 952.462 223.853C950.769 221.683 948.649 219.885 946.233 218.568C943.817 217.251 941.156 216.444 938.416 216.196C935.675 215.949 932.913 216.267 930.3 217.13C938.134 228.487 941.701 242.248 940.37 255.98V255.98Z" fill="#F1F1F1"/>
<path d="M909.18 264.11C904.164 265.065 898.973 264.077 894.659 261.345C890.346 258.613 887.233 254.343 885.952 249.401C884.671 244.458 885.317 239.214 887.761 234.731C890.205 230.247 894.262 226.862 899.11 225.26C892.321 215.43 882.68 207.919 871.486 203.744C860.293 199.568 848.088 198.928 836.52 201.91C860.662 234.163 871.766 274.327 867.62 314.4C878.768 311.109 888.679 304.565 896.084 295.605C903.488 286.645 908.048 275.678 909.18 264.11V264.11Z" fill="#F1F1F1"/>
<path d="M549.37 280.73C538.119 283.138 527.831 288.816 519.796 297.052C511.762 305.288 506.339 315.713 504.21 327.02C509.051 326.917 513.766 328.563 517.491 331.657C521.215 334.751 523.698 339.085 524.483 343.863C525.269 348.64 524.304 353.541 521.767 357.665C519.229 361.788 515.289 364.858 510.67 366.31C517.285 378.137 527.814 387.291 540.446 392.199C553.078 397.106 567.025 397.46 579.89 393.2C555.962 360.869 545.068 320.722 549.37 280.73V280.73Z" fill="#F1F1F1"/>
<path d="M504.23 327.02C501.343 327.072 498.5 327.745 495.896 328.993C493.291 330.241 490.986 332.035 489.137 334.253C487.288 336.471 485.937 339.061 485.178 341.848C484.419 344.634 484.269 347.551 484.737 350.401C485.206 353.251 486.282 355.966 487.894 358.363C489.505 360.759 491.613 362.781 494.076 364.29C496.538 365.8 499.296 366.761 502.163 367.11C505.03 367.458 507.938 367.185 510.69 366.31C504.012 354.37 501.726 340.469 504.23 327.02V327.02Z" fill="#F1F1F1"/>
<path d="M467.44 335.72C464.553 335.772 461.71 336.445 459.106 337.693C456.501 338.941 454.196 340.735 452.347 342.953C450.498 345.171 449.147 347.761 448.388 350.548C447.629 353.334 447.479 356.251 447.947 359.101C448.416 361.951 449.492 364.666 451.104 367.063C452.715 369.459 454.823 371.481 457.286 372.99C459.748 374.5 462.506 375.461 465.373 375.81C468.24 376.158 471.148 375.885 473.9 375.01C467.228 363.068 464.942 349.169 467.44 335.72Z" fill="#F1F1F1"/>
<path d="M775.46 152.6L743.05 192.31C744.606 194.749 745.973 197.303 747.14 199.95L782.82 156.24C780.37 154.91 777.94 153.69 775.46 152.6Z" fill="#F1F1F1"/>
<path d="M867.62 314.4C860.199 316.557 852.423 317.219 844.744 316.346C837.065 315.474 829.636 313.085 822.887 309.318C816.139 305.551 810.206 300.482 805.433 294.403C800.66 288.325 797.141 281.36 795.082 273.911C793.022 266.462 792.463 258.678 793.436 251.011C794.409 243.344 796.895 235.947 800.75 229.248C804.605 222.55 809.753 216.684 815.893 211.991C822.033 207.298 829.045 203.871 836.52 201.91C823.587 184.718 807.345 170.288 788.75 159.47L797.53 166.64L752.13 222.26C752.377 233.236 749.523 244.059 743.895 253.486C738.268 262.912 730.095 270.561 720.317 275.552C710.538 280.543 699.55 282.675 688.615 281.702C677.679 280.73 667.24 276.692 658.495 270.054C649.751 263.415 643.057 254.444 639.182 244.172C635.306 233.9 634.407 222.744 636.587 211.983C638.767 201.223 643.938 191.296 651.506 183.343C659.074 175.389 668.731 169.732 679.37 167.02L675.72 164.02L696.72 138.31C659.375 141.055 624.177 156.811 597.252 182.834C570.328 208.858 553.384 243.5 549.37 280.73C563.982 277.566 579.252 280.132 592.027 287.899C604.803 295.665 614.11 308.04 618.028 322.468C621.946 336.897 620.176 352.279 613.083 365.44C605.99 378.602 594.116 388.538 579.91 393.2C599.112 419.116 625.698 438.624 656.182 449.164C686.666 459.705 719.624 460.786 750.733 452.265C781.842 443.745 809.65 426.021 830.509 401.419C851.368 376.816 864.304 346.484 867.62 314.4V314.4ZM694.37 420.19C685.425 412.892 678.844 403.105 675.461 392.066C672.078 381.028 672.045 369.235 675.365 358.178C678.685 347.12 685.209 337.296 694.113 329.947C703.016 322.598 713.899 318.054 725.386 316.89C736.872 315.726 748.445 317.995 758.642 323.409C768.839 328.823 777.201 337.139 782.671 347.306C788.141 357.473 790.474 369.033 789.374 380.525C788.273 392.018 783.79 402.926 776.49 411.87C766.703 423.862 752.553 431.475 737.153 433.035C721.753 434.596 706.364 429.975 694.37 420.19V420.19Z" fill="#F1F1F1"/>
<path d="M729.51 139.27C726.343 138.85 723.163 138.517 719.97 138.27L697.89 165.33C700.989 165.538 704.065 165.996 707.09 166.7L729.51 139.27Z" fill="#F1F1F1"/>
<path d="M730.98 178.6L757.85 145.68C755.09 144.78 752.317 143.96 749.53 143.22L724.46 173.93C726.633 175.271 728.717 176.751 730.7 178.36L730.98 178.6Z" fill="#F1F1F1"/>
</g>
<defs>
<filter id="filter0_d" x="-10" y="621.19" width="962" height="112" filterUnits="userSpaceOnUse" color-interpolation-filters="sRGB">
<feFlood flood-opacity="0" result="BackgroundImageFix"/>
<feColorMatrix in="SourceAlpha" type="matrix" values="0 0 0 0 0 0 0 0 0 0 0 0 0 0 0 0 0 0 127 0"/>
<feOffset dy="10"/>
<feGaussianBlur stdDeviation="5"/>
<feColorMatrix type="matrix" values="0 0 0 0 0 0 0 0 0 0 0 0 0 0 0 0 0 0 0.5 0"/>
<feBlend mode="normal" in2="BackgroundImageFix" result="effect1_dropShadow"/>
<feBlend mode="normal" in="SourceGraphic" in2="effect1_dropShadow" result="shape"/>
</filter>
<filter id="filter1_i" x="31.6" y="260.74" width="350.15" height="381.54" filterUnits="userSpaceOnUse" color-interpolation-filters="sRGB">
<feFlood flood-opacity="0" result="BackgroundImageFix"/>
<feBlend mode="normal" in="SourceGraphic" in2="BackgroundImageFix" result="shape"/>
<feColorMatrix in="SourceAlpha" type="matrix" values="0 0 0 0 0 0 0 0 0 0 0 0 0 0 0 0 0 0 127 0" result="hardAlpha"/>
<feOffset dy="4"/>
<feGaussianBlur stdDeviation="5"/>
<feComposite in2="hardAlpha" operator="arithmetic" k2="-1" k3="1"/>
<feColorMatrix type="matrix" values="0 0 0 0 0 0 0 0 0 0 0 0 0 0 0 0 0 0 0.25 0"/>
<feBlend mode="normal" in2="shape" result="effect1_innerShadow"/>
</filter>
<filter id="filter2_i" x="94.11" y="0" width="377.53" height="354.15" filterUnits="userSpaceOnUse" color-interpolation-filters="sRGB">
<feFlood flood-opacity="0" result="BackgroundImageFix"/>
<feBlend mode="normal" in="SourceGraphic" in2="BackgroundImageFix" result="shape"/>
<feColorMatrix in="SourceAlpha" type="matrix" values="0 0 0 0 0 0 0 0 0 0 0 0 0 0 0 0 0 0 127 0" result="hardAlpha"/>
<feOffset dy="4"/>
<feGaussianBlur stdDeviation="5"/>
<feComposite in2="hardAlpha" operator="arithmetic" k2="-1" k3="1"/>
<feColorMatrix type="matrix" values="0 0 0 0 0 0 0 0 0 0 0 0 0 0 0 0 0 0 0.25 0"/>
<feBlend mode="normal" in2="shape" result="effect1_innerShadow"/>
</filter>
<filter id="filter3_d" x="167.37" y="520.15" width="243.81" height="210.92" filterUnits="userSpaceOnUse" color-interpolation-filters="sRGB">
<feFlood flood-opacity="0" result="BackgroundImageFix"/>
<feColorMatrix in="SourceAlpha" type="matrix" values="0 0 0 0 0 0 0 0 0 0 0 0 0 0 0 0 0 0 127 0"/>
<feOffset dx="10" dy="4"/>
<feGaussianBlur stdDeviation="25"/>
<feColorMatrix type="matrix" values="0 0 0 0 0 0 0 0 0 0 0 0 0 0 0 0 0 0 1 0"/>
<feBlend mode="normal" in2="BackgroundImageFix" result="effect1_dropShadow"/>
<feBlend mode="normal" in="SourceGraphic" in2="effect1_dropShadow" result="shape"/>
</filter>
<linearGradient id="paint0_linear" x1="471" y1="621.19" x2="471" y2="713.19" gradientUnits="userSpaceOnUse">
<stop stop-color="#111111"/>
<stop offset="1" stop-color="#4C42C8" stop-opacity="0.47"/>
</linearGradient>
<clipPath id="clip0">
<rect width="956.73" height="713.19" fill="white"/>
</clipPath>
</defs>
</svg>
